<svg width="5287" height="3872" viewBox="0 0 5287 3872" fill="none" xmlns="http://www.w3.org/2000/svg">
<g filter="url(#filter0_d_1048_1580)">
<rect x="123" y="101" width="5040" height="3670" rx="64" fill="black"/>
<rect x="133" y="111" width="5020" height="3650" rx="54" stroke="#0092E1" stroke-width="20"/>
</g>
<rect x="423" y="329" width="2033" height="136" rx="68" fill="#ABABAB" fill-opacity="0.39"/>
<path d="M490.919 1146.61H440.26V1133.79H490.919C501.498 1133.79 510.084 1132.09 516.676 1128.67C523.349 1125.17 528.191 1120.45 531.202 1114.51C534.295 1108.57 535.841 1101.89 535.841 1094.49C535.841 1087.25 534.295 1080.57 531.202 1074.47C528.191 1068.37 523.349 1063.48 516.676 1059.82C510.084 1056.08 501.498 1054.21 490.919 1054.21H445.509V1219H430.494V1041.27H490.919C503.94 1041.27 514.885 1043.5 523.756 1047.98C532.708 1052.46 539.462 1058.68 544.02 1066.66C548.577 1074.63 550.855 1083.83 550.855 1094.24C550.855 1105.15 548.577 1114.55 544.02 1122.44C539.462 1130.25 532.748 1136.24 523.878 1140.39C515.007 1144.54 504.021 1146.61 490.919 1146.61ZM664.986 1195.32V1127.2C664.986 1120.94 663.684 1115.53 661.08 1110.97C658.476 1106.41 654.651 1102.91 649.605 1100.47C644.56 1098.03 638.334 1096.81 630.929 1096.81C624.093 1096.81 617.989 1098.03 612.618 1100.47C607.328 1102.83 603.137 1106.04 600.045 1110.11C597.034 1114.1 595.528 1118.54 595.528 1123.42L580.88 1123.3C580.88 1118.33 582.101 1113.53 584.542 1108.89C586.983 1104.25 590.442 1100.1 594.918 1096.44C599.394 1092.78 604.724 1089.89 610.909 1087.77C617.175 1085.58 624.052 1084.48 631.539 1084.48C640.979 1084.48 649.28 1086.07 656.441 1089.24C663.684 1092.41 669.34 1097.17 673.409 1103.52C677.478 1109.87 679.513 1117.84 679.513 1127.45V1191.29C679.513 1195.85 679.838 1200.57 680.489 1205.45C681.222 1210.33 682.239 1214.36 683.541 1217.54V1219H668.038C667.062 1216.07 666.288 1212.41 665.719 1208.01C665.23 1203.54 664.986 1199.31 664.986 1195.32ZM668.404 1142.1L668.648 1153.33H639.962C632.475 1153.33 625.761 1154.02 619.82 1155.4C613.961 1156.7 608.997 1158.66 604.928 1161.26C600.859 1163.78 597.726 1166.84 595.528 1170.42C593.412 1174 592.354 1178.07 592.354 1182.62C592.354 1187.34 593.535 1191.66 595.895 1195.56C598.336 1199.47 601.754 1202.6 606.148 1204.96C610.624 1207.24 615.914 1208.38 622.018 1208.38C630.156 1208.38 637.317 1206.87 643.502 1203.86C649.768 1200.85 654.936 1196.91 659.005 1192.02C663.074 1187.14 665.8 1181.81 667.184 1176.03L673.531 1184.45C672.473 1188.52 670.52 1192.71 667.672 1197.03C664.905 1201.26 661.284 1205.25 656.808 1208.99C652.332 1212.65 647.042 1215.66 640.938 1218.02C634.916 1220.3 628.08 1221.44 620.431 1221.44C611.804 1221.44 604.277 1219.81 597.848 1216.56C591.5 1213.3 586.536 1208.87 582.955 1203.25C579.456 1197.56 577.706 1191.13 577.706 1183.97C577.706 1177.46 579.09 1171.64 581.856 1166.51C584.623 1161.3 588.611 1156.91 593.819 1153.33C599.109 1149.66 605.457 1146.9 612.862 1145.03C620.349 1143.07 628.731 1142.1 638.009 1142.1H668.404ZM810.611 1086.92H824.161V1216.68C824.161 1228.16 821.964 1238 817.569 1246.22C813.256 1254.44 807.112 1260.75 799.137 1265.14C791.243 1269.54 781.925 1271.73 771.183 1271.73C765.73 1271.73 760.115 1270.88 754.337 1269.17C748.64 1267.54 743.229 1265.02 738.102 1261.6C733.056 1258.27 728.743 1254.12 725.162 1249.15L733.341 1240.24C738.712 1246.75 744.449 1251.51 750.553 1254.52C756.656 1257.61 763.248 1259.16 770.328 1259.16C778.71 1259.16 785.79 1257.49 791.568 1254.16C797.428 1250.82 801.863 1246.02 804.874 1239.75C807.966 1233.49 809.513 1225.96 809.513 1217.17V1115.97L810.611 1086.92ZM717.838 1154.3V1151.74C717.838 1141.49 718.977 1132.25 721.256 1124.03C723.616 1115.73 726.993 1108.65 731.388 1102.79C735.782 1096.85 741.113 1092.33 747.379 1089.24C753.727 1086.07 760.888 1084.48 768.863 1084.48C776.513 1084.48 783.308 1085.74 789.249 1088.26C795.19 1090.79 800.317 1094.41 804.63 1099.13C808.943 1103.85 812.402 1109.46 815.006 1115.97C817.691 1122.48 819.645 1129.73 820.865 1137.7V1170.29C819.889 1177.78 818.098 1184.66 815.494 1190.92C812.89 1197.11 809.431 1202.52 805.118 1207.16C800.805 1211.72 795.597 1215.26 789.493 1217.78C783.471 1220.22 776.513 1221.44 768.619 1221.44C760.725 1221.44 753.645 1219.81 747.379 1216.56C741.113 1213.3 735.782 1208.71 731.388 1202.76C726.993 1196.74 723.616 1189.62 721.256 1181.4C718.977 1173.18 717.838 1164.15 717.838 1154.3ZM732.486 1151.74V1154.3C732.486 1162.03 733.259 1169.2 734.806 1175.79C736.352 1182.38 738.712 1188.12 741.886 1193C745.06 1197.88 749.088 1201.71 753.971 1204.47C758.854 1207.24 764.591 1208.62 771.183 1208.62C779.565 1208.62 786.604 1207.04 792.301 1203.86C797.997 1200.61 802.514 1196.34 805.851 1191.05C809.187 1185.67 811.629 1179.82 813.175 1173.47V1135.5C812.28 1131.19 810.896 1126.8 809.024 1122.32C807.234 1117.84 804.711 1113.73 801.456 1109.99C798.282 1106.17 794.213 1103.11 789.249 1100.84C784.366 1098.48 778.425 1097.3 771.427 1097.3C764.754 1097.3 758.935 1098.68 753.971 1101.45C749.088 1104.21 745.06 1108.08 741.886 1113.04C738.712 1117.93 736.352 1123.66 734.806 1130.25C733.259 1136.85 732.486 1144.01 732.486 1151.74ZM918.395 1221.44C909.768 1221.44 901.834 1219.85 894.591 1216.68C887.429 1213.51 881.163 1209.03 875.792 1203.25C870.502 1197.47 866.393 1190.64 863.463 1182.75C860.615 1174.77 859.19 1166.06 859.19 1156.62V1151.37C859.19 1141.2 860.696 1132 863.707 1123.79C866.718 1115.57 870.868 1108.53 876.158 1102.67C881.448 1096.81 887.47 1092.33 894.225 1089.24C901.061 1086.07 908.222 1084.48 915.709 1084.48C924.091 1084.48 931.537 1085.98 938.048 1089C944.558 1091.92 950.011 1096.12 954.405 1101.57C958.881 1106.94 962.258 1113.33 964.537 1120.73C966.816 1128.06 967.955 1136.15 967.955 1145.03V1153.94H867.979V1141.49H953.429V1139.78C953.266 1132.37 951.76 1125.45 948.912 1119.02C946.145 1112.51 941.995 1107.22 936.461 1103.16C930.927 1099.09 924.01 1097.05 915.709 1097.05C909.524 1097.05 903.827 1098.35 898.619 1100.96C893.492 1103.56 889.057 1107.31 885.313 1112.19C881.651 1116.99 878.803 1122.73 876.769 1129.4C874.815 1135.99 873.839 1143.32 873.839 1151.37V1156.62C873.839 1163.95 874.897 1170.78 877.013 1177.13C879.21 1183.4 882.302 1188.93 886.29 1193.73C890.359 1198.53 895.16 1202.28 900.694 1204.96C906.228 1207.65 912.332 1208.99 919.005 1208.99C926.817 1208.99 933.735 1207.57 939.757 1204.72C945.779 1201.79 951.191 1197.19 955.992 1190.92L965.147 1198C962.299 1202.24 958.718 1206.14 954.405 1209.72C950.174 1213.3 945.087 1216.15 939.146 1218.27C933.206 1220.38 926.288 1221.44 918.395 1221.44ZM997.979 1210.09C997.979 1207.24 998.875 1204.84 1000.67 1202.89C1002.54 1200.85 1005.06 1199.83 1008.23 1199.83C1011.49 1199.83 1014.05 1200.85 1015.92 1202.89C1017.8 1204.84 1018.73 1207.24 1018.73 1210.09C1018.73 1212.86 1017.8 1215.22 1015.92 1217.17C1014.05 1219.12 1011.49 1220.1 1008.23 1220.1C1005.06 1220.1 1002.54 1219.12 1000.67 1217.17C998.875 1215.22 997.979 1212.86 997.979 1210.09ZM998.346 1097.42C998.346 1094.57 999.241 1092.17 1001.03 1090.22C1002.9 1088.18 1005.43 1087.16 1008.6 1087.16C1011.85 1087.16 1014.42 1088.18 1016.29 1090.22C1018.16 1092.17 1019.1 1094.57 1019.1 1097.42C1019.1 1100.18 1018.16 1102.54 1016.29 1104.5C1014.42 1106.45 1011.85 1107.43 1008.6 1107.43C1005.43 1107.43 1002.9 1106.45 1001.03 1104.5C999.241 1102.54 998.346 1100.18 998.346 1097.42Z" fill="white"/>
<path d="M1703 947H4586C4618.58 947 4645 973.415 4645 1006V1262C4645 1294.58 4618.58 1321 4586 1321H1703C1670.42 1321 1644 1294.58 1644 1262V1006C1644 973.415 1670.42 947 1703 947Z" stroke="#0092E1" stroke-width="10"/>
<path d="M1803.07 1065.33V1194H1786.81V1085.63L1754.03 1097.58V1082.91L1800.52 1065.33H1803.07ZM1931.22 1119.82V1139.33C1931.22 1149.82 1930.28 1158.67 1928.4 1165.88C1926.53 1173.08 1923.83 1178.88 1920.32 1183.28C1916.8 1187.67 1912.55 1190.87 1907.57 1192.86C1902.65 1194.79 1897.09 1195.76 1890.88 1195.76C1885.95 1195.76 1881.41 1195.14 1877.25 1193.91C1873.09 1192.68 1869.34 1190.72 1866 1188.02C1862.72 1185.27 1859.91 1181.7 1857.56 1177.3C1855.22 1172.91 1853.43 1167.57 1852.2 1161.3C1850.97 1155.04 1850.36 1147.71 1850.36 1139.33V1119.82C1850.36 1109.33 1851.29 1100.54 1853.17 1093.45C1855.1 1086.36 1857.83 1080.68 1861.34 1076.4C1864.86 1072.07 1869.08 1068.96 1874 1067.09C1878.98 1065.21 1884.55 1064.27 1890.7 1064.27C1895.68 1064.27 1900.25 1064.89 1904.41 1066.12C1908.63 1067.29 1912.38 1069.2 1915.66 1071.83C1918.94 1074.41 1921.72 1077.87 1924.01 1082.2C1926.35 1086.48 1928.14 1091.72 1929.37 1097.94C1930.6 1104.15 1931.22 1111.44 1931.22 1119.82ZM1914.87 1141.97V1117.1C1914.87 1111.35 1914.52 1106.31 1913.81 1101.98C1913.17 1097.58 1912.2 1093.83 1910.91 1090.73C1909.62 1087.62 1907.98 1085.1 1905.99 1083.17C1904.06 1081.24 1901.8 1079.83 1899.22 1078.95C1896.71 1078.01 1893.86 1077.54 1890.7 1077.54C1886.83 1077.54 1883.4 1078.28 1880.42 1079.74C1877.43 1081.15 1874.91 1083.4 1872.86 1086.51C1870.87 1089.62 1869.34 1093.69 1868.29 1098.73C1867.23 1103.77 1866.71 1109.89 1866.71 1117.1V1141.97C1866.71 1147.71 1867.03 1152.78 1867.67 1157.17C1868.38 1161.57 1869.4 1165.38 1870.75 1168.6C1872.1 1171.76 1873.74 1174.37 1875.67 1176.42C1877.6 1178.47 1879.83 1180 1882.35 1180.99C1884.93 1181.93 1887.77 1182.4 1890.88 1182.4C1894.86 1182.4 1898.35 1181.64 1901.33 1180.11C1904.32 1178.59 1906.81 1176.22 1908.8 1172.99C1910.86 1169.71 1912.38 1165.52 1913.38 1160.43C1914.37 1155.27 1914.87 1149.12 1914.87 1141.97ZM2035.98 1180.64V1194H1952.22V1182.31L1994.15 1135.64C1999.3 1129.9 2003.29 1125.04 2006.1 1121.05C2008.97 1117.01 2010.96 1113.4 2012.08 1110.24C2013.25 1107.02 2013.83 1103.74 2013.83 1100.4C2013.83 1096.18 2012.96 1092.37 2011.2 1088.97C2009.5 1085.51 2006.98 1082.76 2003.64 1080.71C2000.3 1078.66 1996.26 1077.63 1991.51 1077.63C1985.83 1077.63 1981.08 1078.75 1977.27 1080.97C1973.52 1083.14 1970.71 1086.19 1968.83 1090.11C1966.96 1094.04 1966.02 1098.55 1966.02 1103.65H1949.76C1949.76 1096.44 1951.34 1089.85 1954.51 1083.87C1957.67 1077.9 1962.36 1073.15 1968.57 1069.63C1974.78 1066.06 1982.43 1064.27 1991.51 1064.27C1999.6 1064.27 2006.51 1065.71 2012.25 1068.58C2017.99 1071.39 2022.39 1075.38 2025.44 1080.53C2028.54 1085.63 2030.09 1091.61 2030.09 1098.46C2030.09 1102.21 2029.45 1106.02 2028.16 1109.89C2026.93 1113.7 2025.2 1117.51 2022.97 1121.31C2020.81 1125.12 2018.26 1128.87 2015.33 1132.56C2012.46 1136.26 2009.38 1139.89 2006.1 1143.46L1971.82 1180.64H2035.98ZM2133.63 1132.92V1146.28H2090.74V1132.92H2133.63ZM2202.01 1066.03H2218.44L2260.37 1170.36L2302.2 1066.03H2318.73L2266.7 1194H2253.86L2202.01 1066.03ZM2196.65 1066.03H2211.15L2213.52 1144.08V1194H2196.65V1066.03ZM2309.5 1066.03H2324V1194H2307.12V1144.08L2309.5 1066.03ZM2407.41 1177.74V1128.79C2407.41 1125.04 2406.65 1121.78 2405.12 1119.03C2403.66 1116.22 2401.43 1114.05 2398.44 1112.53C2395.46 1111 2391.76 1110.24 2387.37 1110.24C2383.27 1110.24 2379.66 1110.94 2376.56 1112.35C2373.51 1113.76 2371.11 1115.6 2369.35 1117.89C2367.65 1120.17 2366.8 1122.63 2366.8 1125.27H2350.54C2350.54 1121.87 2351.42 1118.5 2353.18 1115.16C2354.94 1111.82 2357.46 1108.8 2360.74 1106.11C2364.08 1103.36 2368.06 1101.19 2372.69 1099.61C2377.38 1097.96 2382.59 1097.14 2388.34 1097.14C2395.25 1097.14 2401.34 1098.32 2406.62 1100.66C2411.95 1103 2416.11 1106.55 2419.1 1111.29C2422.14 1115.98 2423.67 1121.87 2423.67 1128.96V1173.26C2423.67 1176.42 2423.93 1179.79 2424.46 1183.37C2425.04 1186.94 2425.89 1190.02 2427.01 1192.59V1194H2410.04C2409.22 1192.12 2408.58 1189.63 2408.11 1186.53C2407.64 1183.37 2407.41 1180.44 2407.41 1177.74ZM2410.22 1136.34L2410.4 1147.77H2393.96C2389.33 1147.77 2385.2 1148.15 2381.57 1148.91C2377.94 1149.62 2374.89 1150.7 2372.43 1152.16C2369.97 1153.63 2368.09 1155.47 2366.8 1157.7C2365.51 1159.87 2364.87 1162.42 2364.87 1165.35C2364.87 1168.34 2365.54 1171.06 2366.89 1173.52C2368.24 1175.98 2370.26 1177.95 2372.96 1179.41C2375.71 1180.82 2379.08 1181.52 2383.06 1181.52C2388.04 1181.52 2392.44 1180.46 2396.25 1178.36C2400.05 1176.25 2403.07 1173.67 2405.3 1170.62C2407.58 1167.57 2408.81 1164.62 2408.99 1161.74L2415.93 1169.57C2415.52 1172.03 2414.41 1174.75 2412.59 1177.74C2410.78 1180.73 2408.35 1183.6 2405.3 1186.35C2402.31 1189.05 2398.74 1191.3 2394.58 1193.12C2390.47 1194.88 2385.85 1195.76 2380.69 1195.76C2374.24 1195.76 2368.59 1194.5 2363.73 1191.98C2358.92 1189.46 2355.17 1186.09 2352.48 1181.87C2349.84 1177.59 2348.52 1172.82 2348.52 1167.54C2348.52 1162.45 2349.52 1157.96 2351.51 1154.1C2353.5 1150.17 2356.37 1146.92 2360.12 1144.34C2363.87 1141.71 2368.38 1139.71 2373.66 1138.37C2378.93 1137.02 2384.82 1136.34 2391.32 1136.34H2410.22ZM2465.5 1119.21V1194H2449.24V1098.9H2464.62L2465.5 1119.21ZM2461.64 1142.85L2454.87 1142.58C2454.93 1136.08 2455.89 1130.07 2457.77 1124.57C2459.64 1119 2462.28 1114.17 2465.68 1110.06C2469.08 1105.96 2473.12 1102.8 2477.81 1100.57C2482.55 1098.29 2487.8 1097.14 2493.54 1097.14C2498.23 1097.14 2502.45 1097.79 2506.2 1099.08C2509.95 1100.31 2513.14 1102.3 2515.78 1105.05C2518.47 1107.81 2520.52 1111.38 2521.93 1115.78C2523.34 1120.11 2524.04 1125.42 2524.04 1131.69V1194H2507.69V1131.51C2507.69 1126.53 2506.96 1122.54 2505.49 1119.56C2504.03 1116.51 2501.89 1114.31 2499.08 1112.96C2496.27 1111.56 2492.81 1110.86 2488.71 1110.86C2484.66 1110.86 2480.97 1111.71 2477.63 1113.4C2474.35 1115.1 2471.51 1117.45 2469.11 1120.44C2466.76 1123.42 2464.92 1126.85 2463.57 1130.72C2462.28 1134.53 2461.64 1138.57 2461.64 1142.85ZM2604.81 1177.74V1128.79C2604.81 1125.04 2604.05 1121.78 2602.53 1119.03C2601.06 1116.22 2598.83 1114.05 2595.85 1112.53C2592.86 1111 2589.17 1110.24 2584.77 1110.24C2580.67 1110.24 2577.07 1110.94 2573.96 1112.35C2570.91 1113.76 2568.51 1115.6 2566.75 1117.89C2565.05 1120.17 2564.21 1122.63 2564.21 1125.27H2547.95C2547.95 1121.87 2548.82 1118.5 2550.58 1115.16C2552.34 1111.82 2554.86 1108.8 2558.14 1106.11C2561.48 1103.36 2565.46 1101.19 2570.09 1099.61C2574.78 1097.96 2580 1097.14 2585.74 1097.14C2592.65 1097.14 2598.75 1098.32 2604.02 1100.66C2609.35 1103 2613.51 1106.55 2616.5 1111.29C2619.55 1115.98 2621.07 1121.87 2621.07 1128.96V1173.26C2621.07 1176.42 2621.33 1179.79 2621.86 1183.37C2622.45 1186.94 2623.3 1190.02 2624.41 1192.59V1194H2607.45C2606.63 1192.12 2605.98 1189.63 2605.51 1186.53C2605.04 1183.37 2604.81 1180.44 2604.81 1177.74ZM2607.62 1136.34L2607.8 1147.77H2591.36C2586.73 1147.77 2582.6 1148.15 2578.97 1148.91C2575.34 1149.62 2572.29 1150.7 2569.83 1152.16C2567.37 1153.63 2565.49 1155.47 2564.21 1157.7C2562.92 1159.87 2562.27 1162.42 2562.27 1165.35C2562.27 1168.34 2562.95 1171.06 2564.29 1173.52C2565.64 1175.98 2567.66 1177.95 2570.36 1179.41C2573.11 1180.82 2576.48 1181.52 2580.46 1181.52C2585.45 1181.52 2589.84 1180.46 2593.65 1178.36C2597.46 1176.25 2600.47 1173.67 2602.7 1170.62C2604.99 1167.57 2606.22 1164.62 2606.39 1161.74L2613.34 1169.57C2612.93 1172.03 2611.81 1174.75 2610 1177.74C2608.18 1180.73 2605.75 1183.6 2602.7 1186.35C2599.71 1189.05 2596.14 1191.3 2591.98 1193.12C2587.88 1194.88 2583.25 1195.76 2578.09 1195.76C2571.65 1195.76 2565.99 1194.5 2561.13 1191.98C2556.32 1189.46 2552.57 1186.09 2549.88 1181.87C2547.24 1177.59 2545.92 1172.82 2545.92 1167.54C2545.92 1162.45 2546.92 1157.96 2548.91 1154.1C2550.9 1150.17 2553.78 1146.92 2557.53 1144.34C2561.28 1141.71 2565.79 1139.71 2571.06 1138.37C2576.33 1137.02 2582.22 1136.34 2588.73 1136.34H2607.62ZM2708.26 1098.9H2723.02V1191.98C2723.02 1200.36 2721.32 1207.51 2717.93 1213.42C2714.53 1219.34 2709.78 1223.82 2703.69 1226.87C2697.65 1229.98 2690.68 1231.53 2682.77 1231.53C2679.49 1231.53 2675.62 1231 2671.17 1229.95C2666.77 1228.95 2662.44 1227.22 2658.16 1224.76C2653.94 1222.36 2650.4 1219.11 2647.53 1215.01L2656.05 1205.34C2660.04 1210.14 2664.2 1213.48 2668.53 1215.36C2672.93 1217.23 2677.26 1218.17 2681.54 1218.17C2686.7 1218.17 2691.15 1217.2 2694.9 1215.27C2698.65 1213.34 2701.55 1210.46 2703.6 1206.66C2705.71 1202.91 2706.76 1198.28 2706.76 1192.77V1119.82L2708.26 1098.9ZM2642.78 1147.51V1145.66C2642.78 1138.39 2643.63 1131.8 2645.33 1125.88C2647.09 1119.91 2649.58 1114.78 2652.8 1110.5C2656.08 1106.23 2660.04 1102.95 2664.66 1100.66C2669.29 1098.32 2674.51 1097.14 2680.31 1097.14C2686.29 1097.14 2691.5 1098.2 2695.95 1100.31C2700.46 1102.36 2704.27 1105.38 2707.38 1109.36C2710.54 1113.29 2713.03 1118.03 2714.85 1123.6C2716.67 1129.17 2717.93 1135.46 2718.63 1142.5V1150.58C2717.98 1157.55 2716.72 1163.82 2714.85 1169.39C2713.03 1174.96 2710.54 1179.7 2707.38 1183.63C2704.27 1187.55 2700.46 1190.57 2695.95 1192.68C2691.44 1194.73 2686.17 1195.76 2680.13 1195.76C2674.45 1195.76 2669.29 1194.56 2664.66 1192.15C2660.09 1189.75 2656.17 1186.38 2652.89 1182.05C2649.61 1177.71 2647.09 1172.61 2645.33 1166.75C2643.63 1160.84 2642.78 1154.42 2642.78 1147.51ZM2659.04 1145.66V1147.51C2659.04 1152.25 2659.51 1156.71 2660.45 1160.87C2661.44 1165.03 2662.94 1168.69 2664.93 1171.85C2666.98 1175.02 2669.59 1177.51 2672.75 1179.32C2675.91 1181.08 2679.69 1181.96 2684.09 1181.96C2689.48 1181.96 2693.93 1180.82 2697.45 1178.53C2700.96 1176.25 2703.75 1173.23 2705.8 1169.48C2707.91 1165.73 2709.55 1161.66 2710.72 1157.26V1136.08C2710.07 1132.86 2709.08 1129.75 2707.73 1126.76C2706.44 1123.72 2704.74 1121.02 2702.63 1118.68C2700.58 1116.28 2698.03 1114.37 2694.99 1112.96C2691.94 1111.56 2688.37 1110.86 2684.26 1110.86C2679.81 1110.86 2675.97 1111.79 2672.75 1113.67C2669.59 1115.48 2666.98 1118 2664.93 1121.23C2662.94 1124.39 2661.44 1128.08 2660.45 1132.3C2659.51 1136.46 2659.04 1140.91 2659.04 1145.66ZM2787.18 1195.76C2780.56 1195.76 2774.56 1194.64 2769.17 1192.42C2763.83 1190.13 2759.23 1186.94 2755.37 1182.84C2751.56 1178.74 2748.63 1173.87 2746.58 1168.25C2744.53 1162.62 2743.5 1156.47 2743.5 1149.79V1146.1C2743.5 1138.37 2744.64 1131.48 2746.93 1125.45C2749.21 1119.35 2752.32 1114.2 2756.25 1109.98C2760.17 1105.76 2764.62 1102.56 2769.61 1100.4C2774.59 1098.23 2779.74 1097.14 2785.07 1097.14C2791.87 1097.14 2797.73 1098.32 2802.65 1100.66C2807.63 1103 2811.71 1106.29 2814.87 1110.5C2818.03 1114.66 2820.38 1119.59 2821.9 1125.27C2823.42 1130.89 2824.19 1137.05 2824.19 1143.73V1151.02H2753.17V1137.75H2807.93V1136.52C2807.69 1132.3 2806.81 1128.2 2805.29 1124.21C2803.82 1120.23 2801.48 1116.95 2798.26 1114.37C2795.04 1111.79 2790.64 1110.5 2785.07 1110.5C2781.38 1110.5 2777.98 1111.29 2774.88 1112.88C2771.77 1114.4 2769.11 1116.69 2766.88 1119.73C2764.65 1122.78 2762.93 1126.5 2761.7 1130.89C2760.46 1135.29 2759.85 1140.36 2759.85 1146.1V1149.79C2759.85 1154.3 2760.46 1158.55 2761.7 1162.54C2762.98 1166.46 2764.83 1169.92 2767.23 1172.91C2769.69 1175.89 2772.65 1178.24 2776.11 1179.94C2779.62 1181.64 2783.61 1182.49 2788.06 1182.49C2793.8 1182.49 2798.67 1181.31 2802.65 1178.97C2806.64 1176.63 2810.12 1173.49 2813.11 1169.57L2822.96 1177.39C2820.9 1180.49 2818.3 1183.45 2815.13 1186.27C2811.97 1189.08 2808.07 1191.36 2803.44 1193.12C2798.87 1194.88 2793.45 1195.76 2787.18 1195.76ZM2963.49 1066.03H2980.37V1152.6C2980.37 1162.21 2978.23 1170.21 2973.95 1176.6C2969.67 1182.98 2963.99 1187.79 2956.9 1191.01C2949.87 1194.18 2942.22 1195.76 2933.96 1195.76C2925.29 1195.76 2917.44 1194.18 2910.41 1191.01C2903.43 1187.79 2897.9 1182.98 2893.79 1176.6C2889.75 1170.21 2887.73 1162.21 2887.73 1152.6V1066.03H2904.52V1152.6C2904.52 1159.28 2905.75 1164.79 2908.21 1169.13C2910.67 1173.46 2914.1 1176.69 2918.49 1178.79C2922.95 1180.9 2928.1 1181.96 2933.96 1181.96C2939.88 1181.96 2945.04 1180.9 2949.43 1178.79C2953.88 1176.69 2957.34 1173.46 2959.8 1169.13C2962.26 1164.79 2963.49 1159.28 2963.49 1152.6V1066.03ZM3059.91 1168.78C3059.91 1166.43 3059.38 1164.26 3058.33 1162.27C3057.33 1160.22 3055.25 1158.38 3052.09 1156.73C3048.98 1155.04 3044.29 1153.57 3038.02 1152.34C3032.75 1151.23 3027.97 1149.91 3023.7 1148.38C3019.48 1146.86 3015.88 1145.02 3012.89 1142.85C3009.96 1140.68 3007.7 1138.13 3006.12 1135.2C3004.54 1132.27 3003.75 1128.84 3003.75 1124.92C3003.75 1121.17 3004.57 1117.62 3006.21 1114.28C3007.91 1110.94 3010.28 1107.98 3013.33 1105.41C3016.43 1102.83 3020.15 1100.81 3024.49 1099.34C3028.82 1097.88 3033.66 1097.14 3038.99 1097.14C3046.61 1097.14 3053.11 1098.49 3058.5 1101.19C3063.89 1103.88 3068.02 1107.49 3070.89 1112C3073.77 1116.45 3075.2 1121.4 3075.2 1126.85H3058.94C3058.94 1124.21 3058.15 1121.67 3056.57 1119.21C3055.04 1116.69 3052.79 1114.61 3049.8 1112.96C3046.87 1111.32 3043.27 1110.5 3038.99 1110.5C3034.48 1110.5 3030.82 1111.21 3028 1112.61C3025.25 1113.96 3023.23 1115.69 3021.94 1117.8C3020.71 1119.91 3020.09 1122.13 3020.09 1124.48C3020.09 1126.24 3020.39 1127.82 3020.97 1129.22C3021.62 1130.57 3022.73 1131.83 3024.31 1133C3025.89 1134.12 3028.12 1135.17 3030.99 1136.17C3033.86 1137.16 3037.53 1138.16 3041.98 1139.16C3049.77 1140.91 3056.19 1143.02 3061.23 1145.48C3066.27 1147.95 3070.02 1150.96 3072.48 1154.54C3074.94 1158.11 3076.17 1162.45 3076.17 1167.54C3076.17 1171.71 3075.29 1175.51 3073.53 1178.97C3071.83 1182.43 3069.34 1185.42 3066.06 1187.94C3062.84 1190.4 3058.97 1192.33 3054.46 1193.74C3050.01 1195.08 3045 1195.76 3039.43 1195.76C3031.05 1195.76 3023.96 1194.26 3018.16 1191.28C3012.36 1188.29 3007.96 1184.42 3004.98 1179.67C3001.99 1174.93 3000.49 1169.92 3000.49 1164.64H3016.84C3017.08 1169.1 3018.37 1172.64 3020.71 1175.28C3023.05 1177.86 3025.92 1179.7 3029.32 1180.82C3032.72 1181.87 3036.09 1182.4 3039.43 1182.4C3043.88 1182.4 3047.6 1181.81 3050.59 1180.64C3053.64 1179.47 3055.95 1177.86 3057.54 1175.81C3059.12 1173.76 3059.91 1171.41 3059.91 1168.78ZM3136.99 1195.76C3130.37 1195.76 3124.36 1194.64 3118.97 1192.42C3113.64 1190.13 3109.04 1186.94 3105.17 1182.84C3101.36 1178.74 3098.43 1173.87 3096.38 1168.25C3094.33 1162.62 3093.31 1156.47 3093.31 1149.79V1146.1C3093.31 1138.37 3094.45 1131.48 3096.73 1125.45C3099.02 1119.35 3102.12 1114.2 3106.05 1109.98C3109.98 1105.76 3114.43 1102.56 3119.41 1100.4C3124.39 1098.23 3129.55 1097.14 3134.88 1097.14C3141.68 1097.14 3147.54 1098.32 3152.46 1100.66C3157.44 1103 3161.51 1106.29 3164.67 1110.5C3167.84 1114.66 3170.18 1119.59 3171.71 1125.27C3173.23 1130.89 3173.99 1137.05 3173.99 1143.73V1151.02H3102.97V1137.75H3157.73V1136.52C3157.5 1132.3 3156.62 1128.2 3155.09 1124.21C3153.63 1120.23 3151.29 1116.95 3148.06 1114.37C3144.84 1111.79 3140.45 1110.5 3134.88 1110.5C3131.19 1110.5 3127.79 1111.29 3124.68 1112.88C3121.58 1114.4 3118.91 1116.69 3116.69 1119.73C3114.46 1122.78 3112.73 1126.5 3111.5 1130.89C3110.27 1135.29 3109.65 1140.36 3109.65 1146.1V1149.79C3109.65 1154.3 3110.27 1158.55 3111.5 1162.54C3112.79 1166.46 3114.63 1169.92 3117.04 1172.91C3119.5 1175.89 3122.46 1178.24 3125.91 1179.94C3129.43 1181.64 3133.41 1182.49 3137.87 1182.49C3143.61 1182.49 3148.47 1181.31 3152.46 1178.97C3156.44 1176.63 3159.93 1173.49 3162.92 1169.57L3172.76 1177.39C3170.71 1180.49 3168.1 1183.45 3164.94 1186.27C3161.77 1189.08 3157.88 1191.36 3153.25 1193.12C3148.68 1194.88 3143.26 1195.76 3136.99 1195.76ZM3209.23 1113.84V1194H3192.97V1098.9H3208.79L3209.23 1113.84ZM3238.94 1098.38L3238.85 1113.49C3237.51 1113.2 3236.22 1113.02 3234.99 1112.96C3233.81 1112.85 3232.47 1112.79 3230.94 1112.79C3227.19 1112.79 3223.88 1113.38 3221.01 1114.55C3218.14 1115.72 3215.71 1117.36 3213.72 1119.47C3211.72 1121.58 3210.14 1124.1 3208.97 1127.03C3207.86 1129.9 3207.12 1133.06 3206.77 1136.52L3202.2 1139.16C3202.2 1133.41 3202.76 1128.02 3203.87 1122.98C3205.04 1117.95 3206.83 1113.49 3209.23 1109.62C3211.64 1105.7 3214.68 1102.65 3218.38 1100.48C3222.12 1098.26 3226.58 1097.14 3231.73 1097.14C3232.91 1097.14 3234.25 1097.29 3235.78 1097.58C3237.3 1097.82 3238.36 1098.08 3238.94 1098.38ZM3309.34 1168.78C3309.34 1166.43 3308.81 1164.26 3307.76 1162.27C3306.76 1160.22 3304.68 1158.38 3301.52 1156.73C3298.41 1155.04 3293.73 1153.57 3287.46 1152.34C3282.18 1151.23 3277.41 1149.91 3273.13 1148.38C3268.91 1146.86 3265.31 1145.02 3262.32 1142.85C3259.39 1140.68 3257.13 1138.13 3255.55 1135.2C3253.97 1132.27 3253.18 1128.84 3253.18 1124.92C3253.18 1121.17 3254 1117.62 3255.64 1114.28C3257.34 1110.94 3259.71 1107.98 3262.76 1105.41C3265.87 1102.83 3269.59 1100.81 3273.92 1099.34C3278.26 1097.88 3283.09 1097.14 3288.42 1097.14C3296.04 1097.14 3302.54 1098.49 3307.94 1101.19C3313.33 1103.88 3317.46 1107.49 3320.33 1112C3323.2 1116.45 3324.63 1121.4 3324.63 1126.85H3308.38C3308.38 1124.21 3307.58 1121.67 3306 1119.21C3304.48 1116.69 3302.22 1114.61 3299.23 1112.96C3296.3 1111.32 3292.7 1110.5 3288.42 1110.5C3283.91 1110.5 3280.25 1111.21 3277.44 1112.61C3274.68 1113.96 3272.66 1115.69 3271.37 1117.8C3270.14 1119.91 3269.53 1122.13 3269.53 1124.48C3269.53 1126.24 3269.82 1127.82 3270.41 1129.22C3271.05 1130.57 3272.16 1131.83 3273.75 1133C3275.33 1134.12 3277.55 1135.17 3280.43 1136.17C3283.3 1137.16 3286.96 1138.16 3291.41 1139.16C3299.21 1140.91 3305.62 1143.02 3310.66 1145.48C3315.7 1147.95 3319.45 1150.96 3321.91 1154.54C3324.37 1158.11 3325.6 1162.45 3325.6 1167.54C3325.6 1171.71 3324.72 1175.51 3322.96 1178.97C3321.27 1182.43 3318.78 1185.42 3315.49 1187.94C3312.27 1190.4 3308.4 1192.33 3303.89 1193.74C3299.44 1195.08 3294.43 1195.76 3288.86 1195.76C3280.48 1195.76 3273.39 1194.26 3267.59 1191.28C3261.79 1188.29 3257.4 1184.42 3254.41 1179.67C3251.42 1174.93 3249.93 1169.92 3249.93 1164.64H3266.28C3266.51 1169.1 3267.8 1172.64 3270.14 1175.28C3272.49 1177.86 3275.36 1179.7 3278.76 1180.82C3282.15 1181.87 3285.52 1182.4 3288.86 1182.4C3293.32 1182.4 3297.04 1181.81 3300.03 1180.64C3303.07 1179.47 3305.39 1177.86 3306.97 1175.81C3308.55 1173.76 3309.34 1171.41 3309.34 1168.78Z" fill="#ABABAB"/>
<path d="M4498 1190.72L4527.22 1161.5L4540.11 1174.39L4498 1216.5L4455.89 1174.39L4468.78 1161.5L4498 1190.72ZM4498 1077.28L4468.78 1106.5L4455.89 1093.61L4498 1051.5L4540.11 1093.61L4527.22 1106.5L4498 1077.28Z" fill="#AEAEAE"/>
<path d="M477.003 1710.27V1888H461.988V1710.27H477.003ZM576.852 1755.92V1767.88H510.689V1755.92H576.852ZM534.981 1721.98H549.508V1855.9C549.508 1862 550.322 1866.6 551.949 1869.69C553.577 1872.78 555.693 1874.86 558.297 1875.92C560.901 1876.97 563.709 1877.5 566.72 1877.5C568.917 1877.5 571.033 1877.38 573.067 1877.14C575.102 1876.81 576.933 1876.48 578.561 1876.16L579.171 1888.49C577.381 1889.06 575.061 1889.51 572.213 1889.83C569.365 1890.24 566.516 1890.44 563.668 1890.44C558.053 1890.44 553.089 1889.42 548.775 1887.39C544.462 1885.27 541.085 1881.69 538.644 1876.65C536.202 1871.52 534.981 1864.56 534.981 1855.77V1721.98ZM663.517 1890.44C654.89 1890.44 646.956 1888.85 639.713 1885.68C632.551 1882.51 626.285 1878.03 620.914 1872.25C615.624 1866.47 611.515 1859.64 608.585 1851.75C605.737 1843.77 604.312 1835.06 604.312 1825.62V1820.37C604.312 1810.2 605.818 1801 608.829 1792.79C611.84 1784.57 615.991 1777.53 621.28 1771.67C626.57 1765.81 632.592 1761.33 639.347 1758.24C646.183 1755.07 653.344 1753.48 660.831 1753.48C669.213 1753.48 676.66 1754.98 683.17 1758C689.68 1760.92 695.133 1765.12 699.527 1770.57C704.003 1775.94 707.381 1782.33 709.659 1789.73C711.938 1797.06 713.077 1805.15 713.077 1814.03V1822.94H613.102V1810.49H698.551V1808.78C698.388 1801.37 696.882 1794.45 694.034 1788.02C691.267 1781.51 687.117 1776.22 681.583 1772.16C676.049 1768.09 669.132 1766.05 660.831 1766.05C654.646 1766.05 648.95 1767.35 643.741 1769.96C638.614 1772.56 634.179 1776.31 630.436 1781.19C626.773 1785.99 623.925 1791.73 621.891 1798.4C619.938 1804.99 618.961 1812.32 618.961 1820.37V1825.62C618.961 1832.95 620.019 1839.78 622.135 1846.13C624.332 1852.4 627.424 1857.93 631.412 1862.73C635.481 1867.53 640.283 1871.28 645.816 1873.96C651.35 1876.65 657.454 1877.99 664.127 1877.99C671.939 1877.99 678.857 1876.57 684.879 1873.72C690.901 1870.79 696.313 1866.19 701.114 1859.92L710.27 1867C707.421 1871.24 703.84 1875.14 699.527 1878.72C695.296 1882.3 690.209 1885.15 684.269 1887.27C678.328 1889.38 671.41 1890.44 663.517 1890.44ZM760.68 1783.26V1888H746.031V1755.92H760.069L760.68 1783.26ZM757.994 1813.78L750.914 1810.12C751.402 1802.31 752.867 1794.98 755.309 1788.15C757.831 1781.31 761.331 1775.29 765.807 1770.08C770.283 1764.87 775.654 1760.8 781.92 1757.87C788.186 1754.94 795.307 1753.48 803.282 1753.48C809.711 1753.48 815.53 1754.37 820.738 1756.16C826.028 1757.87 830.504 1760.6 834.166 1764.34C837.91 1768 840.799 1772.81 842.833 1778.75C844.868 1784.69 845.885 1791.81 845.885 1800.11V1888H831.358V1800.6C831.358 1791.81 829.975 1784.93 827.208 1779.97C824.522 1775 820.738 1771.46 815.855 1769.35C811.054 1767.23 805.479 1766.17 799.132 1766.17C791.645 1766.17 785.297 1767.72 780.089 1770.81C774.962 1773.82 770.771 1777.77 767.516 1782.65C764.342 1787.45 761.982 1792.62 760.436 1798.16C758.889 1803.61 758.076 1808.82 757.994 1813.78ZM845.763 1802.31L835.997 1802.55C836.404 1796.12 837.869 1789.98 840.392 1784.12C842.996 1778.26 846.536 1773.05 851.012 1768.49C855.488 1763.85 860.818 1760.19 867.003 1757.51C873.269 1754.82 880.309 1753.48 888.121 1753.48C894.957 1753.48 901.061 1754.41 906.432 1756.29C911.803 1758.08 916.319 1760.97 919.981 1764.95C923.725 1768.86 926.573 1773.86 928.526 1779.97C930.479 1786.07 931.456 1793.4 931.456 1801.94V1888H916.808V1801.82C916.808 1792.46 915.424 1785.22 912.657 1780.09C909.972 1774.88 906.228 1771.26 901.427 1769.23C896.625 1767.19 891.01 1766.17 884.581 1766.17C878.233 1766.26 872.659 1767.44 867.857 1769.71C863.056 1771.91 859.028 1774.84 855.772 1778.5C852.599 1782.08 850.157 1785.95 848.448 1790.1C846.821 1794.25 845.925 1798.32 845.763 1802.31ZM969.781 1879.09C969.781 1876.24 970.676 1873.84 972.467 1871.89C974.339 1869.85 976.861 1868.83 980.035 1868.83C983.29 1868.83 985.854 1869.85 987.726 1871.89C989.597 1873.84 990.533 1876.24 990.533 1879.09C990.533 1881.86 989.597 1884.22 987.726 1886.17C985.854 1888.12 983.29 1889.1 980.035 1889.1C976.861 1889.1 974.339 1888.12 972.467 1886.17C970.676 1884.22 969.781 1881.86 969.781 1879.09ZM970.147 1766.42C970.147 1763.57 971.043 1761.17 972.833 1759.22C974.705 1757.18 977.228 1756.16 980.401 1756.16C983.657 1756.16 986.22 1757.18 988.092 1759.22C989.964 1761.17 990.899 1763.57 990.899 1766.42C990.899 1769.18 989.964 1771.54 988.092 1773.5C986.22 1775.45 983.657 1776.43 980.401 1776.43C977.228 1776.43 974.705 1775.45 972.833 1773.5C971.043 1771.54 970.147 1769.18 970.147 1766.42Z" fill="white"/>
<path d="M1703 1616H4586C4618.58 1616 4645 1642.42 4645 1675V1931C4645 1963.58 4618.58 1990 4586 1990H1703C1670.42 1990 1644 1963.58 1644 1931V1675C1644 1642.42 1670.42 1616 1703 1616Z" stroke="#0092E1" stroke-width="10"/>
<path d="M1801.05 1812.81H1766.86V1799.02H1801.05C1807.67 1799.02 1813.03 1797.96 1817.13 1795.85C1821.24 1793.74 1824.22 1790.81 1826.1 1787.06C1828.03 1783.31 1829 1779.04 1829 1774.23C1829 1769.84 1828.03 1765.71 1826.1 1761.84C1824.22 1757.97 1821.24 1754.87 1817.13 1752.52C1813.03 1750.12 1807.67 1748.92 1801.05 1748.92H1770.82V1863H1753.85V1735.03H1801.05C1810.72 1735.03 1818.89 1736.7 1825.57 1740.04C1832.25 1743.38 1837.32 1748.01 1840.78 1753.93C1844.23 1759.79 1845.96 1766.5 1845.96 1774.05C1845.96 1782.26 1844.23 1789.26 1840.78 1795.06C1837.32 1800.86 1832.25 1805.29 1825.57 1808.33C1818.89 1811.32 1810.72 1812.81 1801.05 1812.81ZM1916.63 1734.33V1863H1900.37V1754.63L1867.58 1766.58V1751.91L1914.08 1734.33H1916.63ZM2044.77 1788.82V1808.33C2044.77 1818.82 2043.83 1827.67 2041.96 1834.88C2040.08 1842.08 2037.39 1847.88 2033.87 1852.28C2030.36 1856.67 2026.11 1859.87 2021.13 1861.86C2016.21 1863.79 2010.64 1864.76 2004.43 1864.76C1999.51 1864.76 1994.97 1864.14 1990.81 1862.91C1986.65 1861.68 1982.9 1859.72 1979.56 1857.02C1976.28 1854.27 1973.46 1850.7 1971.12 1846.3C1968.78 1841.91 1966.99 1836.57 1965.76 1830.3C1964.53 1824.04 1963.91 1816.71 1963.91 1808.33V1788.82C1963.91 1778.33 1964.85 1769.54 1966.72 1762.45C1968.66 1755.36 1971.38 1749.68 1974.9 1745.4C1978.41 1741.07 1982.63 1737.96 1987.55 1736.09C1992.54 1734.21 1998.1 1733.27 2004.25 1733.27C2009.23 1733.27 2013.8 1733.89 2017.96 1735.12C2022.18 1736.29 2025.93 1738.2 2029.21 1740.83C2032.5 1743.41 2035.28 1746.87 2037.56 1751.2C2039.91 1755.48 2041.7 1760.72 2042.93 1766.94C2044.16 1773.15 2044.77 1780.44 2044.77 1788.82ZM2028.42 1810.97V1786.1C2028.42 1780.35 2028.07 1775.31 2027.37 1770.98C2026.72 1766.58 2025.76 1762.83 2024.47 1759.73C2023.18 1756.62 2021.54 1754.1 2019.55 1752.17C2017.61 1750.24 2015.36 1748.83 2012.78 1747.95C2010.26 1747.01 2007.42 1746.54 2004.25 1746.54C2000.39 1746.54 1996.96 1747.28 1993.97 1748.74C1990.98 1750.15 1988.46 1752.4 1986.41 1755.51C1984.42 1758.62 1982.9 1762.69 1981.84 1767.73C1980.79 1772.77 1980.26 1778.89 1980.26 1786.1V1810.97C1980.26 1816.71 1980.58 1821.78 1981.23 1826.17C1981.93 1830.57 1982.96 1834.38 1984.3 1837.6C1985.65 1840.76 1987.29 1843.37 1989.22 1845.42C1991.16 1847.47 1993.38 1849 1995.9 1849.99C1998.48 1850.93 2001.32 1851.4 2004.43 1851.4C2008.41 1851.4 2011.9 1850.64 2014.89 1849.11C2017.88 1847.59 2020.37 1845.22 2022.36 1841.99C2024.41 1838.71 2025.93 1834.52 2026.93 1829.43C2027.93 1824.27 2028.42 1818.12 2028.42 1810.97ZM2149.54 1849.64V1863H2065.78V1851.31L2107.7 1804.64C2112.86 1798.9 2116.84 1794.04 2119.65 1790.05C2122.53 1786.01 2124.52 1782.4 2125.63 1779.24C2126.8 1776.02 2127.39 1772.74 2127.39 1769.4C2127.39 1765.18 2126.51 1761.37 2124.75 1757.97C2123.05 1754.51 2120.53 1751.76 2117.19 1749.71C2113.85 1747.66 2109.81 1746.63 2105.06 1746.63C2099.38 1746.63 2094.63 1747.75 2090.83 1749.97C2087.08 1752.14 2084.26 1755.19 2082.39 1759.11C2080.51 1763.04 2079.58 1767.55 2079.58 1772.65H2063.32C2063.32 1765.44 2064.9 1758.85 2068.06 1752.87C2071.23 1746.9 2075.91 1742.15 2082.12 1738.63C2088.34 1735.06 2095.98 1733.27 2105.06 1733.27C2113.15 1733.27 2120.06 1734.71 2125.81 1737.58C2131.55 1740.39 2135.94 1744.38 2138.99 1749.53C2142.1 1754.63 2143.65 1760.61 2143.65 1767.46C2143.65 1771.21 2143 1775.02 2141.71 1778.89C2140.48 1782.7 2138.76 1786.51 2136.53 1790.31C2134.36 1794.12 2131.81 1797.87 2128.88 1801.56C2126.01 1805.26 2122.94 1808.89 2119.65 1812.46L2085.38 1849.64H2149.54ZM2237.25 1863V1876.36H2156.66V1863H2237.25ZM2325.58 1735.03H2342.46V1821.6C2342.46 1831.21 2340.32 1839.21 2336.04 1845.6C2331.76 1851.98 2326.08 1856.79 2318.99 1860.01C2311.96 1863.18 2304.31 1864.76 2296.05 1864.76C2287.38 1864.76 2279.53 1863.18 2272.5 1860.01C2265.52 1856.79 2259.99 1851.98 2255.88 1845.6C2251.84 1839.21 2249.82 1831.21 2249.82 1821.6V1735.03H2266.61V1821.6C2266.61 1828.28 2267.84 1833.79 2270.3 1838.13C2272.76 1842.46 2276.19 1845.69 2280.58 1847.79C2285.04 1849.9 2290.19 1850.96 2296.05 1850.96C2301.97 1850.96 2307.12 1849.9 2311.52 1847.79C2315.97 1845.69 2319.43 1842.46 2321.89 1838.13C2324.35 1833.79 2325.58 1828.28 2325.58 1821.6V1735.03ZM2437.29 1830.66C2437.29 1827.67 2436.82 1825.03 2435.88 1822.75C2435.01 1820.4 2433.42 1818.29 2431.14 1816.42C2428.91 1814.54 2425.81 1812.76 2421.82 1811.06C2417.9 1809.36 2412.92 1807.63 2406.88 1805.87C2400.55 1804 2394.84 1801.92 2389.74 1799.63C2384.64 1797.29 2380.28 1794.62 2376.65 1791.63C2373.01 1788.64 2370.23 1785.22 2368.3 1781.35C2366.36 1777.48 2365.4 1773.06 2365.4 1768.08C2365.4 1763.1 2366.42 1758.5 2368.47 1754.28C2370.52 1750.06 2373.45 1746.4 2377.26 1743.29C2381.13 1740.13 2385.73 1737.67 2391.06 1735.91C2396.39 1734.15 2402.34 1733.27 2408.9 1733.27C2418.51 1733.27 2426.66 1735.12 2433.34 1738.81C2440.07 1742.44 2445.2 1747.22 2448.72 1753.14C2452.23 1759 2453.99 1765.27 2453.99 1771.95H2437.12C2437.12 1767.14 2436.09 1762.89 2434.04 1759.2C2431.99 1755.45 2428.88 1752.52 2424.72 1750.41C2420.56 1748.24 2415.29 1747.16 2408.9 1747.16C2402.87 1747.16 2397.89 1748.07 2393.96 1749.88C2390.04 1751.7 2387.11 1754.16 2385.17 1757.27C2383.3 1760.37 2382.36 1763.92 2382.36 1767.9C2382.36 1770.6 2382.92 1773.06 2384.03 1775.29C2385.2 1777.45 2386.99 1779.47 2389.39 1781.35C2391.85 1783.22 2394.96 1784.95 2398.71 1786.54C2402.52 1788.12 2407.06 1789.64 2412.33 1791.11C2419.6 1793.16 2425.87 1795.44 2431.14 1797.96C2436.41 1800.48 2440.75 1803.32 2444.15 1806.49C2447.6 1809.59 2450.15 1813.14 2451.79 1817.12C2453.49 1821.05 2454.34 1825.5 2454.34 1830.48C2454.34 1835.7 2453.29 1840.41 2451.18 1844.63C2449.07 1848.85 2446.05 1852.45 2442.12 1855.44C2438.2 1858.43 2433.48 1860.74 2427.97 1862.38C2422.53 1863.97 2416.43 1864.76 2409.69 1864.76C2403.78 1864.76 2397.95 1863.94 2392.2 1862.3C2386.52 1860.66 2381.33 1858.2 2376.65 1854.91C2372.02 1851.63 2368.3 1847.59 2365.48 1842.79C2362.73 1837.92 2361.35 1832.3 2361.35 1825.91H2378.23C2378.23 1830.3 2379.08 1834.08 2380.78 1837.25C2382.48 1840.35 2384.79 1842.93 2387.72 1844.98C2390.71 1847.03 2394.08 1848.56 2397.83 1849.55C2401.64 1850.49 2405.59 1850.96 2409.69 1850.96C2415.61 1850.96 2420.62 1850.14 2424.72 1848.5C2428.82 1846.86 2431.93 1844.51 2434.04 1841.47C2436.21 1838.42 2437.29 1834.82 2437.29 1830.66ZM2557.26 1849.2V1863H2489.5V1849.2H2557.26ZM2492.93 1735.03V1863H2475.96V1735.03H2492.93ZM2548.3 1790.05V1803.85H2489.5V1790.05H2548.3ZM2556.38 1735.03V1748.92H2489.5V1735.03H2556.38ZM2578.27 1735.03H2620.63C2630.24 1735.03 2638.36 1736.5 2644.98 1739.43C2651.66 1742.36 2656.72 1746.69 2660.18 1752.43C2663.7 1758.12 2665.46 1765.12 2665.46 1773.44C2665.46 1779.3 2664.25 1784.66 2661.85 1789.52C2659.51 1794.33 2656.11 1798.43 2651.66 1801.83C2647.26 1805.17 2641.99 1807.66 2635.84 1809.3L2631.09 1811.14H2591.28L2591.1 1797.35H2621.16C2627.25 1797.35 2632.32 1796.29 2636.36 1794.18C2640.41 1792.01 2643.45 1789.11 2645.5 1785.48C2647.55 1781.85 2648.58 1777.83 2648.58 1773.44C2648.58 1768.52 2647.61 1764.21 2645.68 1760.52C2643.75 1756.83 2640.7 1753.99 2636.54 1751.99C2632.44 1749.94 2627.13 1748.92 2620.63 1748.92H2595.23V1863H2578.27V1735.03ZM2653.06 1863L2621.95 1804.99L2639.62 1804.9L2671.17 1861.95V1863H2653.06ZM2755.28 1863V1876.36H2674.68V1863H2755.28ZM2868.83 1735.03V1863H2851.78L2787.36 1764.3V1863H2770.4V1735.03H2787.36L2852.05 1834V1735.03H2868.83ZM2947.85 1746.37L2905.48 1863H2888.17L2936.95 1735.03H2948.11L2947.85 1746.37ZM2983.36 1863L2940.9 1746.37L2940.64 1735.03H2951.8L3000.76 1863H2983.36ZM2981.16 1815.63V1829.51H2909.26V1815.63H2981.16ZM3023.26 1735.03H3039.69L3081.62 1839.36L3123.45 1735.03H3139.98L3087.95 1863H3075.11L3023.26 1735.03ZM3017.9 1735.03H3032.4L3034.77 1813.08V1863H3017.9V1735.03ZM3130.75 1735.03H3145.25V1863H3128.38V1813.08L3130.75 1735.03ZM3256.34 1849.2V1863H3188.58V1849.2H3256.34ZM3192.01 1735.03V1863H3175.04V1735.03H3192.01ZM3247.38 1790.05V1803.85H3188.58V1790.05H3247.38ZM3255.46 1735.03V1748.92H3188.58V1735.03H3255.46Z" fill="#ABABAB"/>
<path d="M4498 1859.72L4527.22 1830.5L4540.11 1843.39L4498 1885.5L4455.89 1843.39L4468.78 1830.5L4498 1859.72ZM4498 1746.28L4468.78 1775.5L4455.89 1762.61L4498 1720.5L4540.11 1762.61L4527.22 1775.5L4498 1746.28Z" fill="#AEAEAE"/>
<path d="M494.523 2534.91L550.554 2379.27H566.911L500.749 2557H488.664L494.523 2534.91ZM436.662 2379.27L492.448 2534.91L498.552 2557H486.345L420.305 2379.27H436.662ZM669.567 2533.32V2465.2C669.567 2458.94 668.265 2453.53 665.661 2448.97C663.057 2444.41 659.232 2440.91 654.187 2438.47C649.141 2436.03 642.915 2434.81 635.51 2434.81C628.674 2434.81 622.57 2436.03 617.199 2438.47C611.91 2440.83 607.718 2444.04 604.626 2448.11C601.615 2452.1 600.109 2456.54 600.109 2461.42L585.461 2461.3C585.461 2456.33 586.682 2451.53 589.123 2446.89C591.564 2442.25 595.023 2438.1 599.499 2434.44C603.975 2430.78 609.305 2427.89 615.49 2425.77C621.757 2423.58 628.633 2422.48 636.12 2422.48C645.56 2422.48 653.861 2424.07 661.022 2427.24C668.265 2430.41 673.921 2435.17 677.99 2441.52C682.059 2447.87 684.094 2455.84 684.094 2465.45V2529.29C684.094 2533.85 684.419 2538.57 685.07 2543.45C685.803 2548.33 686.82 2552.36 688.122 2555.54V2557H672.619C671.643 2554.07 670.869 2550.41 670.3 2546.01C669.812 2541.54 669.567 2537.31 669.567 2533.32ZM672.985 2480.1L673.229 2491.33H644.543C637.056 2491.33 630.342 2492.02 624.401 2493.4C618.542 2494.7 613.578 2496.66 609.509 2499.26C605.44 2501.78 602.307 2504.84 600.109 2508.42C597.993 2512 596.936 2516.07 596.936 2520.62C596.936 2525.34 598.116 2529.66 600.476 2533.56C602.917 2537.47 606.335 2540.6 610.729 2542.96C615.205 2545.24 620.495 2546.38 626.599 2546.38C634.737 2546.38 641.898 2544.87 648.083 2541.86C654.349 2538.85 659.517 2534.91 663.586 2530.02C667.655 2525.14 670.381 2519.81 671.765 2514.03L678.112 2522.45C677.054 2526.52 675.101 2530.71 672.253 2535.03C669.486 2539.26 665.865 2543.25 661.389 2546.99C656.913 2550.65 651.623 2553.66 645.52 2556.02C639.497 2558.3 632.661 2559.44 625.012 2559.44C616.385 2559.44 608.858 2557.81 602.429 2554.56C596.081 2551.3 591.117 2546.87 587.536 2541.25C584.037 2535.56 582.287 2529.13 582.287 2521.97C582.287 2515.46 583.671 2509.64 586.438 2504.51C589.204 2499.3 593.192 2494.91 598.4 2491.33C603.69 2487.66 610.038 2484.9 617.443 2483.03C624.93 2481.07 633.312 2480.1 642.59 2480.1H672.985ZM744.514 2369.5V2557H729.987V2369.5H744.514ZM874.025 2526.48V2424.92H888.674V2557H874.636L874.025 2526.48ZM876.711 2502.07L884.279 2501.82C884.279 2510.12 883.303 2517.77 881.35 2524.77C879.396 2531.77 876.345 2537.88 872.194 2543.08C868.044 2548.29 862.673 2552.32 856.081 2555.17C849.489 2558.02 841.555 2559.44 832.277 2559.44C825.848 2559.44 819.948 2558.55 814.577 2556.76C809.287 2554.88 804.73 2551.95 800.905 2547.97C797.08 2543.98 794.11 2538.81 791.994 2532.46C789.96 2526.12 788.942 2518.43 788.942 2509.39V2424.92H803.469V2509.64C803.469 2516.72 804.242 2522.62 805.788 2527.34C807.416 2532.06 809.613 2535.84 812.38 2538.69C815.228 2541.54 818.483 2543.57 822.146 2544.79C825.808 2546.01 829.755 2546.62 833.986 2546.62C844.729 2546.62 853.192 2544.55 859.377 2540.4C865.643 2536.25 870.078 2530.8 872.683 2524.04C875.368 2517.21 876.711 2509.88 876.711 2502.07ZM982.907 2559.44C974.281 2559.44 966.346 2557.85 959.104 2554.68C951.942 2551.51 945.676 2547.03 940.305 2541.25C935.015 2535.47 930.905 2528.64 927.976 2520.75C925.127 2512.77 923.703 2504.06 923.703 2494.62V2489.37C923.703 2479.2 925.209 2470 928.22 2461.79C931.231 2453.57 935.381 2446.53 940.671 2440.67C945.961 2434.81 951.983 2430.33 958.737 2427.24C965.573 2424.07 972.735 2422.48 980.222 2422.48C988.604 2422.48 996.05 2423.98 1002.56 2427C1009.07 2429.92 1014.52 2434.12 1018.92 2439.57C1023.39 2444.94 1026.77 2451.33 1029.05 2458.73C1031.33 2466.06 1032.47 2474.15 1032.47 2483.03V2491.94H932.492V2479.49H1017.94V2477.78C1017.78 2470.37 1016.27 2463.45 1013.42 2457.02C1010.66 2450.51 1006.51 2445.22 1000.97 2441.16C995.44 2437.09 988.522 2435.05 980.222 2435.05C974.037 2435.05 968.34 2436.35 963.132 2438.96C958.005 2441.56 953.57 2445.31 949.826 2450.19C946.164 2454.99 943.316 2460.73 941.281 2467.4C939.328 2473.99 938.352 2481.32 938.352 2489.37V2494.62C938.352 2501.95 939.41 2508.78 941.525 2515.13C943.723 2521.4 946.815 2526.93 950.803 2531.73C954.872 2536.53 959.673 2540.28 965.207 2542.96C970.741 2545.65 976.844 2546.99 983.518 2546.99C991.33 2546.99 998.247 2545.57 1004.27 2542.72C1010.29 2539.79 1015.7 2535.19 1020.5 2528.92L1029.66 2536C1026.81 2540.24 1023.23 2544.14 1018.92 2547.72C1014.69 2551.3 1009.6 2554.15 1003.66 2556.27C997.718 2558.38 990.801 2559.44 982.907 2559.44ZM1062.49 2548.09C1062.49 2545.24 1063.39 2542.84 1065.18 2540.89C1067.05 2538.85 1069.57 2537.83 1072.75 2537.83C1076 2537.83 1078.56 2538.85 1080.44 2540.89C1082.31 2542.84 1083.24 2545.24 1083.24 2548.09C1083.24 2550.86 1082.31 2553.22 1080.44 2555.17C1078.56 2557.12 1076 2558.1 1072.75 2558.1C1069.57 2558.1 1067.05 2557.12 1065.18 2555.17C1063.39 2553.22 1062.49 2550.86 1062.49 2548.09ZM1062.86 2435.42C1062.86 2432.57 1063.75 2430.17 1065.54 2428.22C1067.42 2426.18 1069.94 2425.16 1073.11 2425.16C1076.37 2425.16 1078.93 2426.18 1080.8 2428.22C1082.67 2430.17 1083.61 2432.57 1083.61 2435.42C1083.61 2438.18 1082.67 2440.54 1080.8 2442.5C1078.93 2444.45 1076.37 2445.43 1073.11 2445.43C1069.94 2445.43 1067.42 2444.45 1065.54 2442.5C1063.75 2440.54 1062.86 2438.18 1062.86 2435.42Z" fill="white"/>
<path d="M1703 2285H4586C4618.58 2285 4645 2311.42 4645 2344V2600C4645 2632.58 4618.58 2659 4586 2659H1703C1670.42 2659 1644 2632.58 1644 2600V2344C1644 2311.42 1670.42 2285 1703 2285Z" stroke="#0092E1" stroke-width="10"/>
<path d="M1807.55 2494.65V2404.03H1824.43V2494.65C1824.43 2503.08 1822.7 2510.2 1819.24 2516C1815.79 2521.8 1811.01 2526.23 1804.92 2529.28C1798.88 2532.26 1791.94 2533.76 1784.09 2533.76C1776.24 2533.76 1769.26 2532.41 1763.17 2529.71C1757.08 2527.02 1752.3 2522.92 1748.84 2517.41C1745.39 2511.9 1743.66 2504.96 1743.66 2496.58H1760.62C1760.62 2501.97 1761.62 2506.39 1763.61 2509.85C1765.6 2513.31 1768.36 2515.86 1771.87 2517.5C1775.45 2519.14 1779.52 2519.96 1784.09 2519.96C1788.54 2519.96 1792.53 2519.02 1796.04 2517.15C1799.62 2515.21 1802.43 2512.37 1804.48 2508.62C1806.53 2504.81 1807.55 2500.15 1807.55 2494.65ZM1846.4 2485.51V2483.48C1846.4 2476.63 1847.4 2470.27 1849.39 2464.41C1851.38 2458.49 1854.25 2453.37 1858 2449.03C1861.75 2444.64 1866.29 2441.24 1871.63 2438.84C1876.96 2436.38 1882.94 2435.14 1889.56 2435.14C1896.24 2435.14 1902.24 2436.38 1907.57 2438.84C1912.96 2441.24 1917.54 2444.64 1921.29 2449.03C1925.09 2453.37 1927.99 2458.49 1929.99 2464.41C1931.98 2470.27 1932.97 2476.63 1932.97 2483.48V2485.51C1932.97 2492.36 1931.98 2498.72 1929.99 2504.58C1927.99 2510.44 1925.09 2515.56 1921.29 2519.96C1917.54 2524.29 1912.99 2527.69 1907.66 2530.15C1902.39 2532.56 1896.41 2533.76 1889.73 2533.76C1883.05 2533.76 1877.05 2532.56 1871.71 2530.15C1866.38 2527.69 1861.81 2524.29 1858 2519.96C1854.25 2515.56 1851.38 2510.44 1849.39 2504.58C1847.4 2498.72 1846.4 2492.36 1846.4 2485.51ZM1862.66 2483.48V2485.51C1862.66 2490.25 1863.22 2494.73 1864.33 2498.95C1865.45 2503.11 1867.12 2506.8 1869.34 2510.03C1871.63 2513.25 1874.47 2515.8 1877.87 2517.67C1881.27 2519.49 1885.22 2520.4 1889.73 2520.4C1894.19 2520.4 1898.08 2519.49 1901.42 2517.67C1904.82 2515.8 1907.63 2513.25 1909.86 2510.03C1912.09 2506.8 1913.76 2503.11 1914.87 2498.95C1916.04 2494.73 1916.63 2490.25 1916.63 2485.51V2483.48C1916.63 2478.8 1916.04 2474.37 1914.87 2470.21C1913.76 2465.99 1912.06 2462.27 1909.77 2459.05C1907.54 2455.77 1904.73 2453.19 1901.33 2451.32C1897.99 2449.44 1894.07 2448.5 1889.56 2448.5C1885.1 2448.5 1881.18 2449.44 1877.78 2451.32C1874.44 2453.19 1871.63 2455.77 1869.34 2459.05C1867.12 2462.27 1865.45 2465.99 1864.33 2470.21C1863.22 2474.37 1862.66 2478.8 1862.66 2483.48ZM1969.62 2397V2532H1953.37V2397H1969.62ZM1965.76 2480.85L1958.99 2480.58C1959.05 2474.08 1960.02 2468.07 1961.89 2462.57C1963.77 2457 1966.4 2452.17 1969.8 2448.06C1973.2 2443.96 1977.24 2440.8 1981.93 2438.57C1986.68 2436.29 1991.92 2435.14 1997.66 2435.14C2002.35 2435.14 2006.57 2435.79 2010.32 2437.08C2014.07 2438.31 2017.26 2440.3 2019.9 2443.05C2022.59 2445.81 2024.64 2449.38 2026.05 2453.78C2027.46 2458.11 2028.16 2463.42 2028.16 2469.69V2532H2011.81V2469.51C2011.81 2464.53 2011.08 2460.54 2009.62 2457.56C2008.15 2454.51 2006.01 2452.31 2003.2 2450.96C2000.39 2449.56 1996.93 2448.86 1992.83 2448.86C1988.79 2448.86 1985.09 2449.71 1981.75 2451.4C1978.47 2453.1 1975.63 2455.45 1973.23 2458.44C1970.88 2461.42 1969.04 2464.85 1967.69 2468.72C1966.4 2472.53 1965.76 2476.57 1965.76 2480.85ZM2068.77 2457.21V2532H2052.51V2436.9H2067.89L2068.77 2457.21ZM2064.9 2480.85L2058.13 2480.58C2058.19 2474.08 2059.16 2468.07 2061.03 2462.57C2062.91 2457 2065.54 2452.17 2068.94 2448.06C2072.34 2443.96 2076.38 2440.8 2081.07 2438.57C2085.82 2436.29 2091.06 2435.14 2096.8 2435.14C2101.49 2435.14 2105.71 2435.79 2109.46 2437.08C2113.21 2438.31 2116.4 2440.3 2119.04 2443.05C2121.73 2445.81 2123.79 2449.38 2125.19 2453.78C2126.6 2458.11 2127.3 2463.42 2127.3 2469.69V2532H2110.95V2469.51C2110.95 2464.53 2110.22 2460.54 2108.76 2457.56C2107.29 2454.51 2105.15 2452.31 2102.34 2450.96C2099.53 2449.56 2096.07 2448.86 2091.97 2448.86C2087.93 2448.86 2084.23 2449.71 2080.89 2451.4C2077.61 2453.1 2074.77 2455.45 2072.37 2458.44C2070.03 2461.42 2068.18 2464.85 2066.83 2468.72C2065.54 2472.53 2064.9 2476.57 2064.9 2480.85ZM2189.09 2532H2162.37L2162.54 2518.2H2189.09C2198.23 2518.2 2205.85 2516.3 2211.94 2512.49C2218.03 2508.62 2222.6 2503.23 2225.65 2496.32C2228.76 2489.34 2230.31 2481.2 2230.31 2471.88V2464.06C2230.31 2456.74 2229.43 2450.23 2227.67 2444.55C2225.91 2438.81 2223.34 2433.97 2219.94 2430.05C2216.54 2426.06 2212.38 2423.04 2207.46 2420.99C2202.59 2418.94 2197 2417.92 2190.67 2417.92H2161.84V2404.03H2190.67C2199.05 2404.03 2206.7 2405.44 2213.61 2408.25C2220.52 2411 2226.47 2415.02 2231.45 2420.29C2236.49 2425.51 2240.36 2431.83 2243.05 2439.28C2245.75 2446.66 2247.1 2454.98 2247.1 2464.24V2471.88C2247.1 2481.14 2245.75 2489.49 2243.05 2496.93C2240.36 2504.31 2236.46 2510.61 2231.36 2515.83C2226.32 2521.04 2220.23 2525.06 2213.08 2527.87C2205.99 2530.62 2197.99 2532 2189.09 2532ZM2171.42 2404.03V2532H2154.46V2404.03H2171.42ZM2265.82 2485.51V2483.48C2265.82 2476.63 2266.81 2470.27 2268.8 2464.41C2270.8 2458.49 2273.67 2453.37 2277.42 2449.03C2281.17 2444.64 2285.71 2441.24 2291.04 2438.84C2296.37 2436.38 2302.35 2435.14 2308.97 2435.14C2315.65 2435.14 2321.66 2436.38 2326.99 2438.84C2332.38 2441.24 2336.95 2444.64 2340.7 2449.03C2344.51 2453.37 2347.41 2458.49 2349.4 2464.41C2351.39 2470.27 2352.39 2476.63 2352.39 2483.48V2485.51C2352.39 2492.36 2351.39 2498.72 2349.4 2504.58C2347.41 2510.44 2344.51 2515.56 2340.7 2519.96C2336.95 2524.29 2332.41 2527.69 2327.08 2530.15C2321.8 2532.56 2315.83 2533.76 2309.15 2533.76C2302.47 2533.76 2296.46 2532.56 2291.13 2530.15C2285.8 2527.69 2281.23 2524.29 2277.42 2519.96C2273.67 2515.56 2270.8 2510.44 2268.8 2504.58C2266.81 2498.72 2265.82 2492.36 2265.82 2485.51ZM2282.08 2483.48V2485.51C2282.08 2490.25 2282.63 2494.73 2283.75 2498.95C2284.86 2503.11 2286.53 2506.8 2288.76 2510.03C2291.04 2513.25 2293.88 2515.8 2297.28 2517.67C2300.68 2519.49 2304.63 2520.4 2309.15 2520.4C2313.6 2520.4 2317.5 2519.49 2320.84 2517.67C2324.23 2515.8 2327.05 2513.25 2329.27 2510.03C2331.5 2506.8 2333.17 2503.11 2334.28 2498.95C2335.46 2494.73 2336.04 2490.25 2336.04 2485.51V2483.48C2336.04 2478.8 2335.46 2474.37 2334.28 2470.21C2333.17 2465.99 2331.47 2462.27 2329.19 2459.05C2326.96 2455.77 2324.15 2453.19 2320.75 2451.32C2317.41 2449.44 2313.48 2448.5 2308.97 2448.5C2304.52 2448.5 2300.59 2449.44 2297.19 2451.32C2293.85 2453.19 2291.04 2455.77 2288.76 2459.05C2286.53 2462.27 2284.86 2465.99 2283.75 2470.21C2282.63 2474.37 2282.08 2478.8 2282.08 2483.48ZM2412.24 2533.76C2405.62 2533.76 2399.62 2532.64 2394.22 2530.42C2388.89 2528.13 2384.29 2524.94 2380.43 2520.84C2376.62 2516.74 2373.69 2511.87 2371.64 2506.25C2369.59 2500.62 2368.56 2494.47 2368.56 2487.79V2484.1C2368.56 2476.37 2369.7 2469.48 2371.99 2463.45C2374.27 2457.35 2377.38 2452.2 2381.3 2447.98C2385.23 2443.76 2389.68 2440.56 2394.66 2438.4C2399.64 2436.23 2404.8 2435.14 2410.13 2435.14C2416.93 2435.14 2422.79 2436.32 2427.71 2438.66C2432.69 2441 2436.76 2444.29 2439.93 2448.5C2443.09 2452.66 2445.44 2457.59 2446.96 2463.27C2448.48 2468.89 2449.24 2475.05 2449.24 2481.73V2489.02H2378.23V2475.75H2432.98V2474.52C2432.75 2470.3 2431.87 2466.2 2430.35 2462.21C2428.88 2458.23 2426.54 2454.95 2423.32 2452.37C2420.09 2449.79 2415.7 2448.5 2410.13 2448.5C2406.44 2448.5 2403.04 2449.29 2399.94 2450.88C2396.83 2452.4 2394.17 2454.69 2391.94 2457.73C2389.71 2460.78 2387.98 2464.5 2386.75 2468.89C2385.52 2473.29 2384.91 2478.36 2384.91 2484.1V2487.79C2384.91 2492.3 2385.52 2496.55 2386.75 2500.54C2388.04 2504.46 2389.89 2507.92 2392.29 2510.91C2394.75 2513.89 2397.71 2516.24 2401.17 2517.94C2404.68 2519.64 2408.67 2520.49 2413.12 2520.49C2418.86 2520.49 2423.73 2519.31 2427.71 2516.97C2431.7 2514.63 2435.18 2511.49 2438.17 2507.57L2448.01 2515.39C2445.96 2518.49 2443.36 2521.45 2440.19 2524.27C2437.03 2527.08 2433.13 2529.36 2428.5 2531.12C2423.93 2532.88 2418.51 2533.76 2412.24 2533.76Z" fill="#ABABAB"/>
<rect x="3727" y="3198" width="1150" height="374" rx="64" fill="#0092E1"/>
<rect x="3955" y="3300" width="695" height="170" rx="85" fill="white" fill-opacity="0.33"/>
<rect x="391" y="3198" width="1150" height="374" rx="64" fill="#CDCDCD"/>
<rect x="602" y="3300" width="695" height="170" rx="85" fill="#ABABAB"/>
<line x1="391" y1="2993.5" x2="4877" y2="2993.5" stroke="#0092E1" stroke-width="5"/>
<line x1="423" y1="648.5" x2="4878" y2="648.5" stroke="#0092E1" stroke-width="5"/>
<defs>
<filter id="filter0_d_1048_1580" x="79" y="73" width="5128" height="3758" filterUnits="userSpaceOnUse" color-interpolation-filters="sRGB">
<feFlood flood-opacity="0" result="BackgroundImageFix"/>
<feColorMatrix in="SourceAlpha" type="matrix" values="0 0 0 0 0 0 0 0 0 0 0 0 0 0 0 0 0 0 127 0" result="hardAlpha"/>
<feMorphology radius="12" operator="dilate" in="SourceAlpha" result="effect1_dropShadow_1048_1580"/>
<feOffset dy="16"/>
<feGaussianBlur stdDeviation="16"/>
<feColorMatrix type="matrix" values="0 0 0 0 0.473 0 0 0 0 0.49493 0 0 0 0 0.5375 0 0 0 0.29 0"/>
<feBlend mode="normal" in2="BackgroundImageFix" result="effect1_dropShadow_1048_1580"/>
<feBlend mode="normal" in="SourceGraphic" in2="effect1_dropShadow_1048_1580" result="shape"/>
</filter>
</defs>
</svg>
