<svg width="10225" height="2178" viewBox="0 0 10225 2178" fill="none" xmlns="http://www.w3.org/2000/svg">
<path d="M3185.03 1737.34V0.0195312H3428.22V735.856H4247.59V0.0195312H4490.78V1737.34H4247.59V952.859H3428.22V1737.34H3185.03Z" fill="white"/>
<path d="M4801.29 435.271H5049.47L5388.69 1454.2H5399.91L5749.11 435.271H5987.31L5348.79 2171.32H4903.57V1974.27H5202.88L5285.19 1737.31L4801.31 435.271H4801.29Z" fill="white"/>
<path d="M6185.58 1379.38C6185.58 1277.29 6218.01 1189.71 6282.9 1116.65C6347.75 1043.62 6445.03 1001.26 6574.72 989.639L6998.69 950.353V845.594C6998.69 794.887 6992.26 752.901 6979.39 719.628C6966.46 686.375 6948.16 659.994 6924.51 640.433C6900.77 620.902 6872.33 607.18 6839.06 599.276C6805.79 591.392 6768.78 587.425 6728.07 587.425C6646.56 587.425 6581.5 605.728 6532.92 642.304C6484.23 678.9 6459.94 739.179 6459.94 823.139H6230.47C6230.47 761.634 6243.74 705.282 6270.28 654.145C6296.81 603.008 6332.48 558.732 6377.28 521.318C6422.02 483.903 6474.7 455.016 6535.27 434.637C6595.78 414.279 6660.88 404.084 6730.56 404.084C6800.25 404.084 6865.45 413.041 6925.71 430.895C6985.96 448.779 7038.35 475.59 7082.85 511.338C7127.34 547.106 7161.87 593.028 7186.41 649.145C7210.89 705.272 7223.17 771.593 7223.17 848.069V1540.24H7417.73V1737.3H7028.62L7023.63 1496.59H7013.65C6977.89 1588.89 6925.11 1657.27 6855.27 1701.75C6785.43 1746.22 6701.87 1768.47 6604.6 1768.47C6539.76 1768.47 6481.14 1758.49 6428.76 1738.54C6376.38 1718.59 6331.09 1689.08 6292.83 1649.99C6258.76 1615.92 6232.32 1575.16 6213.67 1527.77C6194.92 1480.37 6185.58 1430.91 6185.58 1379.36V1379.38ZM6428.77 1410.5C6428.77 1470.36 6449.53 1514.24 6491.13 1542.1C6532.68 1569.97 6590.04 1583.91 6663.23 1583.91C6767.14 1583.91 6849.05 1546.89 6908.92 1472.79C6968.78 1398.7 6998.71 1302.99 6998.71 1185.59V1126.92L6536.03 1169.7C6488.64 1173.01 6458.92 1185.48 6446.84 1207.13C6434.76 1228.76 6428.78 1258.27 6428.78 1295.68V1410.49L6428.77 1410.5Z" fill="white"/>
<path d="M7674.65 1737.32V435.273H7904.12V649.78C7939.89 573.305 7988.92 513.221 8051.28 469.569C8113.63 425.917 8194.29 404.096 8293.22 404.096C8356.23 404.096 8413.4 412.624 8464.83 429.659C8516.21 446.725 8560.55 473.935 8597.86 511.349C8635.18 548.764 8664.16 596.782 8684.86 655.394C8705.62 714.006 8715.98 785.327 8715.98 869.278V1737.3H8486.51V894.217C8486.51 798.61 8468.21 723.577 8431.64 669.106C8395.02 614.656 8327.28 587.416 8228.35 587.416C8180.96 587.416 8137.71 596.772 8098.65 615.474C8059.59 634.187 8025.47 660.997 7996.39 695.917C7967.31 730.837 7944.66 772.219 7928.39 820.012C7912.23 867.826 7904.1 920.006 7904.1 976.531V1737.3H7674.63L7674.65 1737.32Z" fill="white"/>
<path d="M9063.93 1086.3C9063.93 992.359 9074.55 903.593 9095.8 820.031C9117 736.47 9148.88 664.136 9191.28 603.029C9233.79 541.922 9287.46 493.505 9352.41 457.737C9417.36 421.989 9493.19 404.105 9579.73 404.105C9676.86 404.105 9760.21 424.903 9829.96 466.459C9899.65 508.035 9954.86 568.324 9995.52 647.295V0.0195312H10225V1737.32H9995.52V1525.3C9954.86 1603.48 9900.49 1663.54 9832.45 1705.52C9764.4 1747.49 9682.25 1768.49 9585.97 1768.49C9497.67 1768.49 9420.9 1750.61 9355.5 1714.86C9290.15 1679.11 9235.87 1630.48 9192.57 1568.95C9149.27 1507.44 9117 1435.3 9095.79 1352.57C9074.54 1269.85 9063.93 1181.08 9063.93 1086.3ZM9307.12 1288.34C9307.12 1332.41 9315.6 1372.75 9332.66 1409.32C9349.63 1445.92 9373.07 1476.89 9403 1502.24C9432.83 1527.61 9467.71 1547.56 9507.56 1562.1C9547.37 1576.67 9591.37 1583.92 9639.51 1583.92C9754.88 1583.92 9843.03 1547.35 9904.05 1474.17C9965.01 1401.01 9995.54 1308.29 9995.54 1196.05V976.551C9995.54 864.307 9965.01 771.389 9904.05 697.808C9843.03 624.226 9754.89 587.435 9639.51 587.435C9592.16 587.435 9548.41 594.716 9508.16 609.256C9467.9 623.827 9432.83 643.982 9403 669.739C9373.07 695.528 9349.63 726.705 9332.66 763.281C9315.6 799.877 9307.12 840.206 9307.12 884.257V1288.34Z" fill="white"/>
<path d="M579.093 1158.24H0V1737.35H579.093V1158.24Z" fill="white"/>
<path d="M1737.28 579.123V0H1158.19V579.123H579.113V0H0V579.133H579.093V1158.24H1158.19V1737.34H1737.28V1158.24H2316.36V579.123H1737.28Z" fill="white"/>
</svg>
