<svg width="475" height="475" viewBox="0 0 475 476" fill="none" xmlns="http://www.w3.org/2000/svg">
  <mask id="a" style="mask-type:alpha" maskUnits="userSpaceOnUse" x="52" y="53" width="370" height="370">
  <circle cx="237.268" cy="238.16" r="184.549" transform="rotate(110.343 237.268 238.16)" fill="#9BDEAE"/>
  </mask>
  <g mask="url(#a)">
  <circle cx="238.581" cy="241.022" r="186.674" transform="rotate(110.343 238.581 241.022)" fill="#65BC7B"/>
  <path d="M165.164 412.653C187.703 422.294 211.92 427.402 236.432 427.684C260.945 427.966 285.274 423.417 308.028 414.297C330.783 405.177 351.519 391.665 369.052 374.531C386.584 357.398 400.57 336.979 410.212 314.44C419.853 291.901 424.961 267.684 425.243 243.171C425.525 218.658 420.976 194.33 411.856 171.575C402.737 148.82 389.224 128.085 372.09 110.552C354.957 93.0193 334.538 79.033 311.999 69.3917L238.581 241.022L165.164 412.653Z" fill="#FF484F"/>
  <line x1="134.853" y1="155.316" x2="215.128" y2="344.424" stroke="white" stroke-width="56"/>
  <line x1="180.523" y1="328.335" x2="440.147" y2="218.127" stroke="white" stroke-width="56"/>
  </g>
  </svg>
  