<svg width="5287" height="3872" viewBox="0 0 5287 3872" fill="none" xmlns="http://www.w3.org/2000/svg">
<g filter="url(#filter0_d)">
<rect x="123" y="101" width="5040" height="3670" rx="64" fill="white"/>
</g>
<rect x="423" y="329" width="2033" height="136" rx="68" fill="#ABABAB" fill-opacity="0.39"/>
<path d="M445.509 1146.61V1219H430.494V1041.27H491.041C509.514 1041.27 524.081 1045.99 534.742 1055.43C545.484 1064.87 550.855 1077.85 550.855 1094.37C550.855 1111.05 545.688 1123.95 535.353 1133.06C525.099 1142.1 510.206 1146.61 490.675 1146.61H445.509ZM445.509 1133.92H491.041C505.608 1133.92 516.716 1130.46 524.366 1123.54C532.016 1116.62 535.841 1106.98 535.841 1094.61C535.841 1082.32 532.016 1072.56 524.366 1065.31C516.798 1057.99 506.015 1054.25 492.018 1054.08H445.509V1133.92ZM668.038 1219C666.573 1214.85 665.637 1208.71 665.23 1200.57C660.104 1207.24 653.552 1212.41 645.577 1216.07C637.683 1219.65 629.301 1221.44 620.431 1221.44C607.735 1221.44 597.441 1217.9 589.547 1210.82C581.734 1203.74 577.828 1194.79 577.828 1183.97C577.828 1171.11 583.159 1160.94 593.819 1153.45C604.562 1145.96 619.495 1142.22 638.619 1142.22H665.108V1127.2C665.108 1117.76 662.179 1110.36 656.319 1104.99C650.541 1099.53 642.078 1096.81 630.929 1096.81C620.756 1096.81 612.333 1099.41 605.66 1104.62C598.987 1109.83 595.65 1116.09 595.65 1123.42L581.002 1123.3C581.002 1112.8 585.885 1103.72 595.65 1096.08C605.416 1088.34 617.42 1084.48 631.661 1084.48C646.391 1084.48 657.988 1088.18 666.451 1095.59C674.996 1102.91 679.391 1113.17 679.635 1126.35V1188.85C679.635 1201.63 680.978 1211.19 683.663 1217.54V1219H668.038ZM622.14 1208.5C631.905 1208.5 640.613 1206.14 648.263 1201.42C655.994 1196.7 661.609 1190.39 665.108 1182.5V1153.45H638.985C624.418 1153.61 613.025 1156.3 604.806 1161.5C596.586 1166.63 592.477 1173.71 592.477 1182.75C592.477 1190.15 595.203 1196.29 600.655 1201.18C606.189 1206.06 613.351 1208.5 622.14 1208.5ZM717.838 1151.74C717.838 1131.07 722.395 1114.71 731.51 1102.67C740.706 1090.54 753.157 1084.48 768.863 1084.48C786.848 1084.48 800.52 1091.64 809.879 1105.96L810.611 1086.92H824.283V1216.31C824.283 1233.32 819.522 1246.79 810.001 1256.72C800.479 1266.65 787.581 1271.61 771.305 1271.61C762.109 1271.61 753.32 1269.54 744.938 1265.39C736.637 1261.32 730.086 1255.87 725.284 1249.03L733.463 1240.24C743.798 1252.94 756.087 1259.28 770.328 1259.28C782.535 1259.28 792.057 1255.66 798.893 1248.42C805.729 1241.26 809.269 1231.29 809.513 1218.51V1201.91C800.154 1214.93 786.523 1221.44 768.619 1221.44C753.32 1221.44 741.031 1215.34 731.754 1203.13C722.477 1190.92 717.838 1174.44 717.838 1153.69V1151.74ZM732.608 1154.3C732.608 1171.15 735.986 1184.45 742.74 1194.22C749.495 1203.9 759.016 1208.75 771.305 1208.75C789.29 1208.75 802.026 1200.69 809.513 1184.58V1123.17C806.095 1114.71 801.171 1108.28 794.742 1103.89C788.313 1099.41 780.582 1097.17 771.549 1097.17C759.26 1097.17 749.698 1102.02 742.862 1111.7C736.026 1121.3 732.608 1135.5 732.608 1154.3ZM918.517 1221.44C907.286 1221.44 897.114 1218.67 887.999 1213.14C878.966 1207.61 871.926 1199.92 866.881 1190.07C861.835 1180.14 859.312 1169.03 859.312 1156.74V1151.5C859.312 1138.8 861.754 1127.37 866.637 1117.19C871.601 1107.02 878.478 1099.05 887.267 1093.27C896.056 1087.41 905.577 1084.48 915.831 1084.48C931.863 1084.48 944.558 1089.97 953.917 1100.96C963.357 1111.86 968.077 1126.8 968.077 1145.76V1153.94H873.839V1156.74C873.839 1171.72 878.111 1184.21 886.656 1194.22C895.283 1204.15 906.106 1209.11 919.127 1209.11C926.939 1209.11 933.816 1207.69 939.757 1204.84C945.779 1201.99 951.231 1197.43 956.114 1191.17L965.27 1198.13C954.527 1213.67 938.943 1221.44 918.517 1221.44ZM915.831 1096.93C904.845 1096.93 895.567 1100.96 887.999 1109.01C880.512 1117.07 875.955 1127.89 874.327 1141.49H953.551V1139.9C953.144 1127.2 949.522 1116.87 942.687 1108.89C935.851 1100.92 926.899 1096.93 915.831 1096.93ZM997.979 1210.21C997.979 1207.36 998.875 1204.96 1000.67 1203.01C1002.54 1200.97 1005.1 1199.96 1008.36 1199.96C1011.61 1199.96 1014.17 1200.97 1016.05 1203.01C1017.92 1204.96 1018.85 1207.36 1018.85 1210.21C1018.85 1213.06 1017.92 1215.42 1016.05 1217.29C1014.17 1219.08 1011.61 1219.98 1008.36 1219.98C1005.1 1219.98 1002.54 1219.08 1000.67 1217.29C998.875 1215.42 997.979 1213.06 997.979 1210.21ZM998.224 1097.54C998.224 1094.69 999.119 1092.29 1000.91 1090.34C1002.78 1088.3 1005.34 1087.29 1008.6 1087.29C1011.85 1087.29 1014.42 1088.3 1016.29 1090.34C1018.16 1092.29 1019.1 1094.69 1019.1 1097.54C1019.1 1100.39 1018.16 1102.75 1016.29 1104.62C1014.42 1106.41 1011.85 1107.31 1008.6 1107.31C1005.34 1107.31 1002.78 1106.41 1000.91 1104.62C999.119 1102.75 998.224 1100.39 998.224 1097.54Z" fill="#454444"/>
<path d="M1644 1006C1644 973.415 1670.42 947 1703 947H4586C4618.58 947 4645 973.415 4645 1006V1262C4645 1294.58 4618.58 1321 4586 1321H1703C1670.42 1321 1644 1294.58 1644 1262V1006Z" stroke="#CBD5E1" stroke-width="10"/>
<path d="M1803.07 1194H1786.72V1085.63L1753.94 1097.67V1082.91L1800.52 1065.42H1803.07V1194ZM1930.95 1139.42C1930.95 1158.46 1927.7 1172.61 1921.2 1181.87C1914.69 1191.13 1904.53 1195.76 1890.7 1195.76C1877.05 1195.76 1866.94 1191.25 1860.38 1182.22C1853.81 1173.14 1850.42 1159.61 1850.18 1141.62V1119.91C1850.18 1101.1 1853.43 1087.12 1859.94 1077.98C1866.44 1068.84 1876.64 1064.27 1890.52 1064.27C1904.29 1064.27 1914.43 1068.7 1920.93 1077.54C1927.44 1086.33 1930.78 1099.93 1930.95 1118.33V1139.42ZM1914.69 1117.18C1914.69 1103.41 1912.76 1093.39 1908.89 1087.12C1905.03 1080.8 1898.9 1077.63 1890.52 1077.63C1882.2 1077.63 1876.14 1080.77 1872.33 1087.04C1868.52 1093.31 1866.56 1102.95 1866.44 1115.95V1141.97C1866.44 1155.8 1868.43 1166.02 1872.42 1172.64C1876.46 1179.21 1882.55 1182.49 1890.7 1182.49C1898.73 1182.49 1904.67 1179.38 1908.54 1173.17C1912.47 1166.96 1914.52 1157.17 1914.69 1143.81V1117.18ZM2035.63 1194H1951.78V1182.31L1996.08 1133.09C2002.64 1125.65 2007.15 1119.62 2009.62 1114.99C2012.13 1110.3 2013.39 1105.46 2013.39 1100.48C2013.39 1093.8 2011.37 1088.33 2007.33 1084.05C2003.29 1079.77 1997.9 1077.63 1991.16 1077.63C1983.07 1077.63 1976.77 1079.95 1972.26 1084.58C1967.81 1089.15 1965.58 1095.53 1965.58 1103.74H1949.32C1949.32 1091.96 1953.1 1082.44 1960.66 1075.17C1968.28 1067.91 1978.44 1064.27 1991.16 1064.27C2003.05 1064.27 2012.46 1067.41 2019.37 1073.68C2026.29 1079.89 2029.74 1088.18 2029.74 1098.55C2029.74 1111.15 2021.71 1126.15 2005.66 1143.55L1971.38 1180.73H2035.63V1194ZM2133.01 1146.28H2090.12V1133H2133.01V1146.28ZM2217.92 1066.03L2259.75 1170.45L2301.59 1066.03H2323.47V1194H2306.6V1144.17L2308.18 1090.38L2266.17 1194H2253.25L2211.32 1090.64L2212.99 1144.17V1194H2196.12V1066.03H2217.92ZM2409.43 1194C2408.49 1192.12 2407.73 1188.79 2407.14 1183.98C2399.59 1191.83 2390.56 1195.76 2380.07 1195.76C2370.7 1195.76 2362.99 1193.12 2356.96 1187.85C2350.98 1182.52 2347.99 1175.78 2347.99 1167.63C2347.99 1157.73 2351.74 1150.05 2359.24 1144.61C2366.8 1139.1 2377.41 1136.34 2391.06 1136.34H2406.88V1128.87C2406.88 1123.19 2405.18 1118.68 2401.78 1115.34C2398.38 1111.94 2393.38 1110.24 2386.75 1110.24C2380.95 1110.24 2376.09 1111.71 2372.16 1114.63C2368.24 1117.56 2366.28 1121.11 2366.28 1125.27H2349.93C2349.93 1120.52 2351.6 1115.95 2354.94 1111.56C2358.34 1107.11 2362.91 1103.59 2368.65 1101.01C2374.45 1098.43 2380.81 1097.14 2387.72 1097.14C2398.68 1097.14 2407.26 1099.9 2413.47 1105.41C2419.68 1110.86 2422.91 1118.38 2423.14 1127.99V1171.76C2423.14 1180.49 2424.25 1187.44 2426.48 1192.59V1194H2409.43ZM2382.45 1181.61C2387.54 1181.61 2392.38 1180.29 2396.95 1177.65C2401.52 1175.02 2404.83 1171.59 2406.88 1167.37V1147.86H2394.14C2374.21 1147.86 2364.25 1153.69 2364.25 1165.35C2364.25 1170.45 2365.95 1174.43 2369.35 1177.3C2372.75 1180.17 2377.12 1181.61 2382.45 1181.61ZM2464.01 1098.9L2464.54 1110.86C2471.8 1101.71 2481.29 1097.14 2493.01 1097.14C2513.11 1097.14 2523.25 1108.48 2523.42 1131.16V1194H2507.16V1131.07C2507.11 1124.21 2505.52 1119.15 2502.42 1115.87C2499.37 1112.58 2494.6 1110.94 2488.09 1110.94C2482.82 1110.94 2478.19 1112.35 2474.21 1115.16C2470.22 1117.97 2467.12 1121.67 2464.89 1126.24V1194H2448.63V1098.9H2464.01ZM2606.66 1194C2605.72 1192.12 2604.96 1188.79 2604.37 1183.98C2596.81 1191.83 2587.79 1195.76 2577.3 1195.76C2567.93 1195.76 2560.22 1193.12 2554.19 1187.85C2548.21 1182.52 2545.22 1175.78 2545.22 1167.63C2545.22 1157.73 2548.97 1150.05 2556.47 1144.61C2564.03 1139.1 2574.63 1136.34 2588.29 1136.34H2604.11V1128.87C2604.11 1123.19 2602.41 1118.68 2599.01 1115.34C2595.61 1111.94 2590.6 1110.24 2583.98 1110.24C2578.18 1110.24 2573.32 1111.71 2569.39 1114.63C2565.46 1117.56 2563.5 1121.11 2563.5 1125.27H2547.15C2547.15 1120.52 2548.82 1115.95 2552.16 1111.56C2555.56 1107.11 2560.13 1103.59 2565.88 1101.01C2571.68 1098.43 2578.03 1097.14 2584.95 1097.14C2595.9 1097.14 2604.49 1099.9 2610.7 1105.41C2616.91 1110.86 2620.13 1118.38 2620.37 1127.99V1171.76C2620.37 1180.49 2621.48 1187.44 2623.71 1192.59V1194H2606.66ZM2579.67 1181.61C2584.77 1181.61 2589.61 1180.29 2594.18 1177.65C2598.75 1175.02 2602.06 1171.59 2604.11 1167.37V1147.86H2591.36C2571.44 1147.86 2561.48 1153.69 2561.48 1165.35C2561.48 1170.45 2563.18 1174.43 2566.58 1177.3C2569.98 1180.17 2574.34 1181.61 2579.67 1181.61ZM2641.99 1145.66C2641.99 1130.84 2645.42 1119.06 2652.27 1110.33C2659.13 1101.54 2668.21 1097.14 2679.52 1097.14C2691.12 1097.14 2700.17 1101.25 2706.68 1109.45L2707.47 1098.9H2722.32V1191.71C2722.32 1204.02 2718.66 1213.72 2711.33 1220.81C2704.07 1227.9 2694.28 1231.44 2681.98 1231.44C2675.12 1231.44 2668.41 1229.98 2661.85 1227.05C2655.29 1224.12 2650.28 1220.1 2646.82 1215.01L2655.26 1205.25C2662.23 1213.86 2670.76 1218.17 2680.84 1218.17C2688.75 1218.17 2694.9 1215.94 2699.29 1211.49C2703.75 1207.04 2705.97 1200.77 2705.97 1192.68V1184.51C2699.47 1192.01 2690.59 1195.76 2679.34 1195.76C2668.21 1195.76 2659.19 1191.28 2652.27 1182.31C2645.42 1173.35 2641.99 1161.13 2641.99 1145.66ZM2658.34 1147.51C2658.34 1158.23 2660.53 1166.67 2664.93 1172.82C2669.32 1178.91 2675.47 1181.96 2683.38 1181.96C2693.64 1181.96 2701.17 1177.3 2705.97 1167.98V1124.57C2700.99 1115.48 2693.52 1110.94 2683.56 1110.94C2675.65 1110.94 2669.47 1114.02 2665.02 1120.17C2660.56 1126.32 2658.34 1135.44 2658.34 1147.51ZM2786.39 1195.76C2773.5 1195.76 2763.01 1191.54 2754.93 1183.1C2746.84 1174.61 2742.8 1163.27 2742.8 1149.09V1146.1C2742.8 1136.67 2744.59 1128.26 2748.16 1120.88C2751.79 1113.43 2756.83 1107.63 2763.28 1103.47C2769.78 1099.25 2776.81 1097.14 2784.37 1097.14C2796.73 1097.14 2806.34 1101.22 2813.2 1109.36C2820.05 1117.51 2823.48 1129.17 2823.48 1144.34V1151.11H2759.06C2759.29 1160.48 2762.02 1168.07 2767.23 1173.87C2772.51 1179.62 2779.19 1182.49 2787.27 1182.49C2793.01 1182.49 2797.88 1181.31 2801.86 1178.97C2805.85 1176.63 2809.33 1173.52 2812.32 1169.65L2822.25 1177.39C2814.28 1189.63 2802.33 1195.76 2786.39 1195.76ZM2784.37 1110.5C2777.81 1110.5 2772.3 1112.91 2767.85 1117.71C2763.39 1122.46 2760.64 1129.14 2759.59 1137.75H2807.22V1136.52C2806.75 1128.26 2804.53 1121.87 2800.54 1117.36C2796.56 1112.79 2791.17 1110.5 2784.37 1110.5ZM2979.66 1066.03V1153.04C2979.61 1165.11 2975.8 1174.99 2968.24 1182.66C2960.74 1190.34 2950.54 1194.64 2937.65 1195.58L2933.17 1195.76C2919.17 1195.76 2908 1191.98 2899.68 1184.42C2891.36 1176.86 2887.14 1166.46 2887.03 1153.22V1066.03H2903.73V1152.69C2903.73 1161.95 2906.28 1169.16 2911.37 1174.31C2916.47 1179.41 2923.74 1181.96 2933.17 1181.96C2942.72 1181.96 2950.02 1179.41 2955.05 1174.31C2960.15 1169.21 2962.7 1162.04 2962.7 1152.78V1066.03H2979.66ZM3059.12 1168.78C3059.12 1164.38 3057.45 1160.98 3054.11 1158.58C3050.83 1156.12 3045.05 1154.01 3036.79 1152.25C3028.59 1150.49 3022.06 1148.38 3017.19 1145.92C3012.39 1143.46 3008.81 1140.53 3006.47 1137.13C3004.19 1133.74 3003.04 1129.69 3003.04 1125.01C3003.04 1117.21 3006.32 1110.62 3012.89 1105.23C3019.51 1099.84 3027.95 1097.14 3038.2 1097.14C3048.98 1097.14 3057.71 1099.93 3064.39 1105.49C3071.13 1111.06 3074.5 1118.18 3074.5 1126.85H3058.15C3058.15 1122.4 3056.25 1118.56 3052.44 1115.34C3048.69 1112.12 3043.94 1110.5 3038.2 1110.5C3032.28 1110.5 3027.65 1111.79 3024.31 1114.37C3020.97 1116.95 3019.3 1120.32 3019.3 1124.48C3019.3 1128.4 3020.86 1131.36 3023.96 1133.36C3027.07 1135.35 3032.66 1137.25 3040.75 1139.07C3048.89 1140.88 3055.48 1143.05 3060.52 1145.57C3065.56 1148.09 3069.28 1151.14 3071.69 1154.71C3074.15 1158.23 3075.38 1162.54 3075.38 1167.63C3075.38 1176.13 3071.98 1182.96 3065.18 1188.11C3058.38 1193.21 3049.57 1195.76 3038.73 1195.76C3031.11 1195.76 3024.37 1194.41 3018.51 1191.71C3012.65 1189.02 3008.05 1185.27 3004.71 1180.46C3001.43 1175.6 2999.79 1170.36 2999.79 1164.73H3016.05C3016.34 1170.18 3018.51 1174.52 3022.55 1177.74C3026.66 1180.9 3032.05 1182.49 3038.73 1182.49C3044.88 1182.49 3049.8 1181.26 3053.49 1178.79C3057.24 1176.28 3059.12 1172.94 3059.12 1168.78ZM3136.02 1195.76C3123.13 1195.76 3112.64 1191.54 3104.56 1183.1C3096.47 1174.61 3092.43 1163.27 3092.43 1149.09V1146.1C3092.43 1136.67 3094.21 1128.26 3097.79 1120.88C3101.42 1113.43 3106.46 1107.63 3112.91 1103.47C3119.41 1099.25 3126.44 1097.14 3134 1097.14C3146.36 1097.14 3155.97 1101.22 3162.83 1109.36C3169.68 1117.51 3173.11 1129.17 3173.11 1144.34V1151.11H3108.69C3108.92 1160.48 3111.65 1168.07 3116.86 1173.87C3122.13 1179.62 3128.81 1182.49 3136.9 1182.49C3142.64 1182.49 3147.51 1181.31 3151.49 1178.97C3155.47 1176.63 3158.96 1173.52 3161.95 1169.65L3171.88 1177.39C3163.91 1189.63 3151.96 1195.76 3136.02 1195.76ZM3134 1110.5C3127.44 1110.5 3121.93 1112.91 3117.48 1117.71C3113.02 1122.46 3110.27 1129.14 3109.21 1137.75H3156.85V1136.52C3156.38 1128.26 3154.16 1121.87 3150.17 1117.36C3146.19 1112.79 3140.8 1110.5 3134 1110.5ZM3237.97 1113.49C3235.51 1113.08 3232.85 1112.88 3229.98 1112.88C3219.31 1112.88 3212.08 1117.42 3208.27 1126.5V1194H3192.01V1098.9H3207.83L3208.09 1109.89C3213.42 1101.39 3220.98 1097.14 3230.77 1097.14C3233.93 1097.14 3236.33 1097.55 3237.97 1098.38V1113.49ZM3308.38 1168.78C3308.38 1164.38 3306.71 1160.98 3303.37 1158.58C3300.08 1156.12 3294.31 1154.01 3286.05 1152.25C3277.85 1150.49 3271.31 1148.38 3266.45 1145.92C3261.65 1143.46 3258.07 1140.53 3255.73 1137.13C3253.44 1133.74 3252.3 1129.69 3252.3 1125.01C3252.3 1117.21 3255.58 1110.62 3262.14 1105.23C3268.77 1099.84 3277.2 1097.14 3287.46 1097.14C3298.24 1097.14 3306.97 1099.93 3313.65 1105.49C3320.39 1111.06 3323.76 1118.18 3323.76 1126.85H3307.41C3307.41 1122.4 3305.5 1118.56 3301.7 1115.34C3297.95 1112.12 3293.2 1110.5 3287.46 1110.5C3281.54 1110.5 3276.91 1111.79 3273.57 1114.37C3270.23 1116.95 3268.56 1120.32 3268.56 1124.48C3268.56 1128.4 3270.11 1131.36 3273.22 1133.36C3276.32 1135.35 3281.92 1137.25 3290.01 1139.07C3298.15 1140.88 3304.74 1143.05 3309.78 1145.57C3314.82 1148.09 3318.54 1151.14 3320.94 1154.71C3323.4 1158.23 3324.63 1162.54 3324.63 1167.63C3324.63 1176.13 3321.24 1182.96 3314.44 1188.11C3307.64 1193.21 3298.82 1195.76 3287.98 1195.76C3280.37 1195.76 3273.63 1194.41 3267.77 1191.71C3261.91 1189.02 3257.31 1185.27 3253.97 1180.46C3250.69 1175.6 3249.05 1170.36 3249.05 1164.73H3265.31C3265.6 1170.18 3267.77 1174.52 3271.81 1177.74C3275.91 1180.9 3281.3 1182.49 3287.98 1182.49C3294.14 1182.49 3299.06 1181.26 3302.75 1178.79C3306.5 1176.28 3308.38 1172.94 3308.38 1168.78Z" fill="#5E5757"/>
<path d="M4498 1190.72L4527.22 1161.5L4540.11 1174.39L4498 1216.5L4455.89 1174.39L4468.78 1161.5L4498 1190.72ZM4498 1077.28L4468.78 1106.5L4455.89 1093.61L4498 1051.5L4540.11 1093.61L4527.22 1106.5L4498 1077.28Z" fill="#AEAEAE"/>
<path d="M477.125 1888H462.11V1710.27H477.125V1888ZM549.752 1722.11V1755.92H577.096V1767.88H549.752V1855.9C549.752 1863.22 551.054 1868.67 553.658 1872.25C556.344 1875.83 560.779 1877.62 566.964 1877.62C569.405 1877.62 573.352 1877.22 578.805 1876.4L579.415 1888.37C575.59 1889.75 570.382 1890.44 563.79 1890.44C553.78 1890.44 546.497 1887.55 541.939 1881.77C537.382 1875.92 535.104 1867.33 535.104 1856.02V1767.88H510.812V1755.92H535.104V1722.11H549.752ZM663.517 1890.44C652.286 1890.44 642.114 1887.67 632.999 1882.14C623.966 1876.61 616.926 1868.92 611.881 1859.07C606.835 1849.14 604.312 1838.03 604.312 1825.74V1820.5C604.312 1807.8 606.754 1796.37 611.637 1786.19C616.601 1776.02 623.478 1768.05 632.267 1762.27C641.056 1756.41 650.577 1753.48 660.831 1753.48C676.863 1753.48 689.558 1758.97 698.917 1769.96C708.357 1780.86 713.077 1795.8 713.077 1814.76V1822.94H618.839V1825.74C618.839 1840.72 623.111 1853.21 631.656 1863.22C640.283 1873.15 651.106 1878.11 664.127 1878.11C671.939 1878.11 678.816 1876.69 684.757 1873.84C690.779 1870.99 696.231 1866.43 701.114 1860.17L710.27 1867.13C699.527 1882.67 683.943 1890.44 663.517 1890.44ZM660.831 1765.93C649.845 1765.93 640.567 1769.96 632.999 1778.01C625.512 1786.07 620.955 1796.89 619.327 1810.49H698.551V1808.9C698.144 1796.2 694.522 1785.87 687.687 1777.89C680.851 1769.92 671.899 1765.93 660.831 1765.93ZM759.825 1755.92L760.313 1777.4C765.196 1769.43 771.3 1763.45 778.624 1759.46C785.948 1755.47 794.086 1753.48 803.038 1753.48C823.871 1753.48 837.096 1762.02 842.711 1779.11C847.431 1770.89 853.738 1764.59 861.632 1760.19C869.526 1755.72 878.233 1753.48 887.755 1753.48C916.075 1753.48 930.52 1768.94 931.09 1799.87V1888H916.441V1800.96C916.36 1789.16 913.797 1780.42 908.751 1774.72C903.787 1769.02 895.649 1766.17 884.337 1766.17C873.839 1766.34 864.968 1769.75 857.726 1776.43C850.483 1783.02 846.454 1791.08 845.641 1800.6V1888H830.992V1799.87C830.911 1788.55 828.225 1780.13 822.936 1774.6C817.727 1768.98 809.671 1766.17 798.766 1766.17C789.57 1766.17 781.676 1768.82 775.084 1774.11C768.492 1779.32 763.609 1787.09 760.436 1797.42V1888H745.787V1755.92H759.825ZM969.659 1879.21C969.659 1876.36 970.554 1873.96 972.345 1872.01C974.216 1869.97 976.78 1868.96 980.035 1868.96C983.29 1868.96 985.854 1869.97 987.726 1872.01C989.597 1873.96 990.533 1876.36 990.533 1879.21C990.533 1882.06 989.597 1884.42 987.726 1886.29C985.854 1888.08 983.29 1888.98 980.035 1888.98C976.78 1888.98 974.216 1888.08 972.345 1886.29C970.554 1884.42 969.659 1882.06 969.659 1879.21ZM969.903 1766.54C969.903 1763.69 970.799 1761.29 972.589 1759.34C974.461 1757.3 977.024 1756.29 980.279 1756.29C983.535 1756.29 986.098 1757.3 987.97 1759.34C989.841 1761.29 990.777 1763.69 990.777 1766.54C990.777 1769.39 989.841 1771.75 987.97 1773.62C986.098 1775.41 983.535 1776.31 980.279 1776.31C977.024 1776.31 974.461 1775.41 972.589 1773.62C970.799 1771.75 969.903 1769.39 969.903 1766.54Z" fill="#454444"/>
<path d="M1644 1675C1644 1642.42 1670.42 1616 1703 1616H4586C4618.58 1616 4645 1642.42 4645 1675V1931C4645 1963.58 4618.58 1990 4586 1990H1703C1670.42 1990 1644 1963.58 1644 1931V1675Z" stroke="#CBD5E1" stroke-width="10"/>
<path d="M1770.73 1812.9V1863H1753.85V1735.03H1801.05C1815.05 1735.03 1826.01 1738.61 1833.92 1745.75C1841.89 1752.9 1845.88 1762.37 1845.88 1774.14C1845.88 1786.56 1841.98 1796.14 1834.19 1802.88C1826.45 1809.56 1815.35 1812.9 1800.88 1812.9H1770.73ZM1770.73 1799.1H1801.05C1810.07 1799.1 1816.99 1796.99 1821.79 1792.78C1826.6 1788.5 1829 1782.35 1829 1774.32C1829 1766.7 1826.6 1760.61 1821.79 1756.04C1816.99 1751.47 1810.4 1749.09 1802.02 1748.92H1770.73V1799.1ZM1916.63 1863H1900.28V1754.63L1867.5 1766.67V1751.91L1914.08 1734.42H1916.63V1863ZM2044.51 1808.42C2044.51 1827.46 2041.26 1841.61 2034.75 1850.87C2028.25 1860.13 2018.08 1864.76 2004.25 1864.76C1990.6 1864.76 1980.49 1860.25 1973.93 1851.22C1967.37 1842.14 1963.97 1828.61 1963.74 1810.62V1788.91C1963.74 1770.1 1966.99 1756.12 1973.49 1746.98C1980 1737.84 1990.19 1733.27 2004.08 1733.27C2017.85 1733.27 2027.98 1737.7 2034.49 1746.54C2040.99 1755.33 2044.33 1768.93 2044.51 1787.33V1808.42ZM2028.25 1786.18C2028.25 1772.41 2026.31 1762.39 2022.45 1756.12C2018.58 1749.8 2012.46 1746.63 2004.08 1746.63C1995.76 1746.63 1989.69 1749.77 1985.88 1756.04C1982.08 1762.31 1980.11 1771.95 1980 1784.95V1810.97C1980 1824.8 1981.99 1835.02 1985.97 1841.64C1990.02 1848.21 1996.11 1851.49 2004.25 1851.49C2012.28 1851.49 2018.23 1848.38 2022.1 1842.17C2026.02 1835.96 2028.07 1826.17 2028.25 1812.81V1786.18ZM2149.19 1863H2065.34V1851.31L2109.63 1802.09C2116.2 1794.65 2120.71 1788.62 2123.17 1783.99C2125.69 1779.3 2126.95 1774.46 2126.95 1769.48C2126.95 1762.8 2124.93 1757.33 2120.88 1753.05C2116.84 1748.77 2111.45 1746.63 2104.71 1746.63C2096.63 1746.63 2090.33 1748.95 2085.82 1753.58C2081.36 1758.15 2079.14 1764.53 2079.14 1772.74H2062.88C2062.88 1760.96 2066.66 1751.44 2074.21 1744.17C2081.83 1736.91 2092 1733.27 2104.71 1733.27C2116.61 1733.27 2126.01 1736.41 2132.93 1742.68C2139.84 1748.89 2143.3 1757.18 2143.3 1767.55C2143.3 1780.15 2135.27 1795.15 2119.21 1812.55L2084.94 1849.73H2149.19V1863ZM2236.64 1876.27H2156.13V1863H2236.64V1876.27ZM2341.93 1735.03V1822.04C2341.87 1834.11 2338.06 1843.99 2330.5 1851.66C2323 1859.34 2312.81 1863.64 2299.92 1864.58L2295.44 1864.76C2281.43 1864.76 2270.27 1860.98 2261.95 1853.42C2253.63 1845.86 2249.41 1835.46 2249.29 1822.22V1735.03H2265.99V1821.69C2265.99 1830.95 2268.54 1838.16 2273.64 1843.31C2278.74 1848.41 2286 1850.96 2295.44 1850.96C2304.99 1850.96 2312.28 1848.41 2317.32 1843.31C2322.42 1838.21 2324.97 1831.04 2324.97 1821.78V1735.03H2341.93ZM2406.27 1805.96C2391.79 1801.8 2381.25 1796.7 2374.62 1790.67C2368.06 1784.57 2364.78 1777.07 2364.78 1768.17C2364.78 1758.09 2368.79 1749.77 2376.82 1743.21C2384.91 1736.58 2395.4 1733.27 2408.29 1733.27C2417.08 1733.27 2424.9 1734.97 2431.75 1738.37C2438.67 1741.77 2444 1746.46 2447.75 1752.43C2451.56 1758.41 2453.46 1764.94 2453.46 1772.03H2436.5C2436.5 1764.3 2434.04 1758.23 2429.12 1753.84C2424.2 1749.39 2417.25 1747.16 2408.29 1747.16C2399.97 1747.16 2393.46 1749.01 2388.78 1752.7C2384.15 1756.33 2381.83 1761.4 2381.83 1767.9C2381.83 1773.12 2384.03 1777.54 2388.42 1781.17C2392.88 1784.75 2400.41 1788.03 2411.01 1791.02C2421.68 1794.01 2430 1797.32 2435.97 1800.95C2442.01 1804.52 2446.46 1808.71 2449.33 1813.52C2452.26 1818.32 2453.73 1823.98 2453.73 1830.48C2453.73 1840.85 2449.68 1849.17 2441.6 1855.44C2433.51 1861.65 2422.7 1864.76 2409.17 1864.76C2400.38 1864.76 2392.17 1863.09 2384.56 1859.75C2376.94 1856.35 2371.05 1851.72 2366.89 1845.86C2362.79 1840 2360.74 1833.35 2360.74 1825.91H2377.7C2377.7 1833.64 2380.54 1839.77 2386.23 1844.28C2391.97 1848.73 2399.62 1850.96 2409.17 1850.96C2418.07 1850.96 2424.9 1849.14 2429.64 1845.51C2434.39 1841.88 2436.76 1836.93 2436.76 1830.66C2436.76 1824.39 2434.57 1819.55 2430.17 1816.15C2425.78 1812.7 2417.81 1809.3 2406.27 1805.96ZM2547.77 1803.85H2492.31V1849.2H2556.73V1863H2475.44V1735.03H2555.86V1748.92H2492.31V1790.05H2547.77V1803.85ZM2624.67 1811.23H2594.62V1863H2577.65V1735.03H2620.02C2634.43 1735.03 2645.5 1738.31 2653.24 1744.88C2661.03 1751.44 2664.93 1760.99 2664.93 1773.53C2664.93 1781.5 2662.76 1788.44 2658.42 1794.36C2654.15 1800.28 2648.17 1804.7 2640.49 1807.63L2670.55 1861.95V1863H2652.45L2624.67 1811.23ZM2594.62 1797.43H2620.54C2628.92 1797.43 2635.57 1795.27 2640.49 1790.93C2645.47 1786.59 2647.96 1780.79 2647.96 1773.53C2647.96 1765.62 2645.59 1759.55 2640.85 1755.33C2636.16 1751.12 2629.36 1748.98 2620.46 1748.92H2594.62V1797.43ZM2754.66 1876.27H2674.16V1863H2754.66V1876.27ZM2868.22 1863H2851.26L2786.83 1764.39V1863H2769.87V1735.03H2786.83L2851.43 1834.08V1735.03H2868.22V1863ZM2970.44 1829.6H2916.82L2904.78 1863H2887.38L2936.25 1735.03H2951.01L2999.97 1863H2982.65L2970.44 1829.6ZM2921.92 1815.71H2965.43L2943.63 1755.86L2921.92 1815.71ZM3038.99 1735.03L3080.83 1839.45L3122.66 1735.03H3144.55V1863H3127.67V1813.17L3129.25 1759.38L3087.24 1863H3074.32L3032.4 1759.64L3034.07 1813.17V1863H3017.19V1735.03H3038.99ZM3246.68 1803.85H3191.22V1849.2H3255.64V1863H3174.34V1735.03H3254.76V1748.92H3191.22V1790.05H3246.68V1803.85Z" fill="#5E5757"/>
<path d="M4498 1859.72L4527.22 1830.5L4540.11 1843.39L4498 1885.5L4455.89 1843.39L4468.78 1830.5L4498 1859.72ZM4498 1746.28L4468.78 1775.5L4455.89 1762.61L4498 1720.5L4540.11 1762.61L4527.22 1775.5L4498 1746.28Z" fill="#AEAEAE"/>
<path d="M492.57 2535.03L493.547 2538.81L494.646 2535.03L550.554 2379.27H567.033L500.871 2557H486.467L420.305 2379.27H436.662L492.57 2535.03ZM672.619 2557C671.154 2552.85 670.218 2546.71 669.812 2538.57C664.685 2545.24 658.133 2550.41 650.158 2554.07C642.264 2557.65 633.882 2559.44 625.012 2559.44C612.316 2559.44 602.022 2555.9 594.128 2548.82C586.315 2541.74 582.409 2532.79 582.409 2521.97C582.409 2509.11 587.74 2498.94 598.4 2491.45C609.143 2483.96 624.076 2480.22 643.2 2480.22H669.689V2465.2C669.689 2455.76 666.76 2448.36 660.9 2442.99C655.122 2437.53 646.659 2434.81 635.51 2434.81C625.337 2434.81 616.914 2437.41 610.241 2442.62C603.568 2447.83 600.231 2454.09 600.231 2461.42L585.583 2461.3C585.583 2450.8 590.466 2441.72 600.231 2434.08C609.997 2426.34 622.001 2422.48 636.242 2422.48C650.972 2422.48 662.569 2426.18 671.032 2433.59C679.577 2440.91 683.972 2451.17 684.216 2464.35V2526.85C684.216 2539.63 685.559 2549.19 688.244 2555.54V2557H672.619ZM626.721 2546.5C636.486 2546.5 645.194 2544.14 652.844 2539.42C660.575 2534.7 666.19 2528.39 669.689 2520.5V2491.45H643.566C628.999 2491.61 617.606 2494.3 609.387 2499.5C601.167 2504.63 597.058 2511.71 597.058 2520.75C597.058 2528.15 599.784 2534.29 605.236 2539.18C610.77 2544.06 617.932 2546.5 626.721 2546.5ZM744.636 2557H729.987V2369.5H744.636V2557ZM874.392 2540.28C865.603 2553.05 851.564 2559.44 832.277 2559.44C818.199 2559.44 807.497 2555.37 800.173 2547.23C792.849 2539.01 789.105 2526.89 788.942 2510.86V2424.92H803.469V2509.03C803.469 2534.17 813.641 2546.75 833.986 2546.75C855.145 2546.75 868.532 2538 874.147 2520.5V2424.92H888.796V2557H874.636L874.392 2540.28ZM983.029 2559.44C971.799 2559.44 961.626 2556.67 952.512 2551.14C943.479 2545.61 936.439 2537.92 931.394 2528.07C926.348 2518.14 923.825 2507.03 923.825 2494.74V2489.5C923.825 2476.8 926.267 2465.37 931.149 2455.19C936.114 2445.02 942.99 2437.05 951.779 2431.27C960.568 2425.41 970.09 2422.48 980.344 2422.48C996.376 2422.48 1009.07 2427.97 1018.43 2438.96C1027.87 2449.86 1032.59 2464.8 1032.59 2483.76V2491.94H938.352V2494.74C938.352 2509.72 942.624 2522.21 951.169 2532.22C959.795 2542.15 970.619 2547.11 983.64 2547.11C991.452 2547.11 998.329 2545.69 1004.27 2542.84C1010.29 2539.99 1015.74 2535.43 1020.63 2529.17L1029.78 2536.13C1019.04 2551.67 1003.46 2559.44 983.029 2559.44ZM980.344 2434.93C969.357 2434.93 960.08 2438.96 952.512 2447.01C945.025 2455.07 940.467 2465.89 938.84 2479.49H1018.06V2477.9C1017.66 2465.2 1014.04 2454.87 1007.2 2446.89C1000.36 2438.92 991.411 2434.93 980.344 2434.93ZM1062.49 2548.21C1062.49 2545.36 1063.39 2542.96 1065.18 2541.01C1067.05 2538.97 1069.61 2537.96 1072.87 2537.96C1076.12 2537.96 1078.69 2538.97 1080.56 2541.01C1082.43 2542.96 1083.37 2545.36 1083.37 2548.21C1083.37 2551.06 1082.43 2553.42 1080.56 2555.29C1078.69 2557.08 1076.12 2557.98 1072.87 2557.98C1069.61 2557.98 1067.05 2557.08 1065.18 2555.29C1063.39 2553.42 1062.49 2551.06 1062.49 2548.21ZM1062.74 2435.54C1062.74 2432.69 1063.63 2430.29 1065.42 2428.34C1067.29 2426.3 1069.86 2425.29 1073.11 2425.29C1076.37 2425.29 1078.93 2426.3 1080.8 2428.34C1082.67 2430.29 1083.61 2432.69 1083.61 2435.54C1083.61 2438.39 1082.67 2440.75 1080.8 2442.62C1078.93 2444.41 1076.37 2445.31 1073.11 2445.31C1069.86 2445.31 1067.29 2444.41 1065.42 2442.62C1063.63 2440.75 1062.74 2438.39 1062.74 2435.54Z" fill="#454444"/>
<path d="M1644 2344C1644 2311.42 1670.42 2285 1703 2285H4586C4618.58 2285 4645 2311.42 4645 2344V2600C4645 2632.58 4618.58 2659 4586 2659H1703C1670.42 2659 1644 2632.58 1644 2600V2344Z" stroke="#CBD5E1" stroke-width="10"/>
<path d="M1807.47 2404.03H1824.43V2494.65C1824.43 2506.89 1820.74 2516.47 1813.36 2523.39C1806.03 2530.3 1796.25 2533.76 1784 2533.76C1771.29 2533.76 1761.38 2530.51 1754.29 2524C1747.2 2517.5 1743.66 2508.39 1743.66 2496.67H1760.53C1760.53 2503.99 1762.53 2509.71 1766.51 2513.81C1770.55 2517.91 1776.38 2519.96 1784 2519.96C1790.97 2519.96 1796.6 2517.76 1800.88 2513.37C1805.21 2508.97 1807.41 2502.82 1807.47 2494.91V2404.03ZM1846.31 2483.57C1846.31 2474.26 1848.13 2465.88 1851.76 2458.44C1855.46 2450.99 1860.55 2445.25 1867.06 2441.21C1873.62 2437.17 1881.09 2435.14 1889.47 2435.14C1902.42 2435.14 1912.88 2439.63 1920.85 2448.59C1928.87 2457.56 1932.89 2469.48 1932.89 2484.36V2485.51C1932.89 2494.76 1931.1 2503.08 1927.53 2510.47C1924.01 2517.79 1918.94 2523.5 1912.32 2527.61C1905.76 2531.71 1898.2 2533.76 1889.64 2533.76C1876.75 2533.76 1866.29 2529.28 1858.27 2520.31C1850.3 2511.35 1846.31 2499.48 1846.31 2484.71V2483.57ZM1862.66 2485.51C1862.66 2496.05 1865.09 2504.52 1869.96 2510.91C1874.88 2517.29 1881.44 2520.49 1889.64 2520.49C1897.91 2520.49 1904.47 2517.26 1909.33 2510.82C1914.2 2504.31 1916.63 2495.23 1916.63 2483.57C1916.63 2473.14 1914.14 2464.71 1909.16 2458.26C1904.23 2451.76 1897.67 2448.5 1889.47 2448.5C1881.44 2448.5 1874.97 2451.7 1870.04 2458.08C1865.12 2464.47 1862.66 2473.61 1862.66 2485.51ZM1969.54 2448.42C1976.74 2439.57 1986.12 2435.14 1997.66 2435.14C2017.76 2435.14 2027.9 2446.48 2028.07 2469.16V2532H2011.81V2469.07C2011.75 2462.21 2010.17 2457.15 2007.07 2453.87C2004.02 2450.58 1999.24 2448.94 1992.74 2448.94C1987.47 2448.94 1982.84 2450.35 1978.85 2453.16C1974.87 2455.97 1971.76 2459.67 1969.54 2464.24V2532H1953.28V2397H1969.54V2448.42ZM2067.8 2436.9L2068.33 2448.86C2075.59 2439.71 2085.08 2435.14 2096.8 2435.14C2116.9 2435.14 2127.04 2446.48 2127.21 2469.16V2532H2110.95V2469.07C2110.89 2462.21 2109.31 2457.15 2106.21 2453.87C2103.16 2450.58 2098.38 2448.94 2091.88 2448.94C2086.61 2448.94 2081.98 2450.35 2077.99 2453.16C2074.01 2455.97 2070.9 2459.67 2068.68 2464.24V2532H2052.42V2436.9H2067.8ZM2154.28 2532V2404.03H2190.41C2201.54 2404.03 2211.38 2406.49 2219.94 2411.41C2228.49 2416.34 2235.08 2423.34 2239.71 2432.42C2244.4 2441.5 2246.77 2451.93 2246.83 2463.71V2471.88C2246.83 2483.95 2244.49 2494.53 2239.8 2503.61C2235.17 2512.69 2228.52 2519.67 2219.85 2524.53C2211.24 2529.39 2201.19 2531.88 2189.7 2532H2154.28ZM2171.16 2417.92V2518.2H2188.91C2201.92 2518.2 2212.03 2514.16 2219.23 2506.07C2226.5 2497.99 2230.13 2486.47 2230.13 2471.53V2464.06C2230.13 2449.53 2226.71 2438.25 2219.85 2430.22C2213.05 2422.14 2203.38 2418.04 2190.85 2417.92H2171.16ZM2265.55 2483.57C2265.55 2474.26 2267.37 2465.88 2271 2458.44C2274.69 2450.99 2279.79 2445.25 2286.29 2441.21C2292.86 2437.17 2300.33 2435.14 2308.71 2435.14C2321.66 2435.14 2332.12 2439.63 2340.08 2448.59C2348.11 2457.56 2352.12 2469.48 2352.12 2484.36V2485.51C2352.12 2494.76 2350.34 2503.08 2346.76 2510.47C2343.25 2517.79 2338.18 2523.5 2331.56 2527.61C2325 2531.71 2317.44 2533.76 2308.88 2533.76C2295.99 2533.76 2285.53 2529.28 2277.51 2520.31C2269.54 2511.35 2265.55 2499.48 2265.55 2484.71V2483.57ZM2281.9 2485.51C2281.9 2496.05 2284.33 2504.52 2289.2 2510.91C2294.12 2517.29 2300.68 2520.49 2308.88 2520.49C2317.14 2520.49 2323.71 2517.26 2328.57 2510.82C2333.43 2504.31 2335.87 2495.23 2335.87 2483.57C2335.87 2473.14 2333.38 2464.71 2328.39 2458.26C2323.47 2451.76 2316.91 2448.5 2308.71 2448.5C2300.68 2448.5 2294.21 2451.7 2289.28 2458.08C2284.36 2464.47 2281.9 2473.61 2281.9 2485.51ZM2411.98 2533.76C2399.09 2533.76 2388.6 2529.54 2380.51 2521.1C2372.43 2512.61 2368.38 2501.27 2368.38 2487.09V2484.1C2368.38 2474.67 2370.17 2466.26 2373.75 2458.88C2377.38 2451.43 2382.42 2445.63 2388.86 2441.47C2395.37 2437.25 2402.4 2435.14 2409.96 2435.14C2422.32 2435.14 2431.93 2439.22 2438.79 2447.36C2445.64 2455.51 2449.07 2467.17 2449.07 2482.34V2489.11H2384.64C2384.88 2498.48 2387.6 2506.07 2392.82 2511.87C2398.09 2517.62 2404.77 2520.49 2412.86 2520.49C2418.6 2520.49 2423.46 2519.31 2427.45 2516.97C2431.43 2514.63 2434.92 2511.52 2437.91 2507.65L2447.84 2515.39C2439.87 2527.63 2427.92 2533.76 2411.98 2533.76ZM2409.96 2448.5C2403.39 2448.5 2397.89 2450.91 2393.43 2455.71C2388.98 2460.46 2386.23 2467.14 2385.17 2475.75H2432.81V2474.52C2432.34 2466.26 2430.11 2459.87 2426.13 2455.36C2422.14 2450.79 2416.75 2448.5 2409.96 2448.5Z" fill="#5E5757"/>
<rect x="3727" y="3198" width="1150" height="374" rx="64" fill="#0076DF"/>
<rect x="3955" y="3300" width="695" height="170" rx="85" fill="white" fill-opacity="0.33"/>
<g filter="url(#filter1_d)">
<rect x="391" y="3198" width="1150" height="374" rx="64" fill="white"/>
</g>
<rect x="602" y="3300" width="695" height="170" rx="85" fill="#D1D1D1" fill-opacity="0.33"/>
<line x1="391" y1="2994.5" x2="4877" y2="2994.5" stroke="#B4B4B4" stroke-width="3"/>
<line x1="423" y1="649.5" x2="4878" y2="649.5" stroke="#B4B4B4" stroke-width="3"/>
<defs>
<filter id="filter0_d" x="79" y="73" width="5128" height="3758" filterUnits="userSpaceOnUse" color-interpolation-filters="sRGB">
<feFlood flood-opacity="0" result="BackgroundImageFix"/>
<feColorMatrix in="SourceAlpha" type="matrix" values="0 0 0 0 0 0 0 0 0 0 0 0 0 0 0 0 0 0 127 0"/>
<feMorphology radius="12" operator="dilate" in="SourceAlpha" result="effect1_dropShadow"/>
<feOffset dy="16"/>
<feGaussianBlur stdDeviation="16"/>
<feColorMatrix type="matrix" values="0 0 0 0 0.473 0 0 0 0 0.49493 0 0 0 0 0.5375 0 0 0 0.29 0"/>
<feBlend mode="normal" in2="BackgroundImageFix" result="effect1_dropShadow"/>
<feBlend mode="normal" in="SourceGraphic" in2="effect1_dropShadow" result="shape"/>
</filter>
<filter id="filter1_d" x="367" y="3176" width="1198" height="422" filterUnits="userSpaceOnUse" color-interpolation-filters="sRGB">
<feFlood flood-opacity="0" result="BackgroundImageFix"/>
<feColorMatrix in="SourceAlpha" type="matrix" values="0 0 0 0 0 0 0 0 0 0 0 0 0 0 0 0 0 0 127 0"/>
<feMorphology radius="20" operator="dilate" in="SourceAlpha" result="effect1_dropShadow"/>
<feOffset dy="2"/>
<feGaussianBlur stdDeviation="2"/>
<feColorMatrix type="matrix" values="0 0 0 0 0.6375 0 0 0 0 0.6375 0 0 0 0 0.6375 0 0 0 0.3 0"/>
<feBlend mode="normal" in2="BackgroundImageFix" result="effect1_dropShadow"/>
<feBlend mode="normal" in="SourceGraphic" in2="effect1_dropShadow" result="shape"/>
</filter>
</defs>
</svg>
