<svg width="464" height="139" viewBox="0 0 464 139" fill="none" xmlns="http://www.w3.org/2000/svg">
  <g clip-path="url(#c)">
    <path fill-rule="evenodd" clip-rule="evenodd" d="M464 0H4.5H0V138.67H464V106.667H456V130.667H449.6C438.267 130.667 434.667 125.067 434.8 108C434.8 97.0668 437.067 90.5335 441.333 88.4002C444.8 86.6668 458.133 86.0002 461.867 87.4668L463.097 88C463.097 88 463.773 88.5219 464 89.5C464 89.5 464 91.8908 464 93.5V78.5335L453.733 77.8668C444.533 77.2002 442.533 77.4668 437.333 80.2668C428.133 84.9335 426 90.4002 426 108.667C426 125.334 427.867 130.667 435.067 135.6L439.729 138.67L421.867 138.667L419.6 129.6C419.292 128.459 418.955 127.203 418.605 125.903C417.446 121.582 416.153 116.767 415.333 114C414.875 112.395 414.169 109.976 413.366 107.22L413.363 107.209C412.299 103.559 411.063 99.3203 410 95.6002C408.267 89.2002 406.133 82.8002 405.333 81.3335C403.333 77.7335 397.6 76.5335 393.467 78.8002C390.267 80.6668 388.4 84.9335 383.333 103.333C382.657 105.814 381.557 109.607 380.415 113.544L380.412 113.556L380.411 113.559C379.529 116.601 378.622 119.728 377.867 122.4C376 128.4 374.4 134.534 374.267 136C374.219 136.91 373.5 138.67 373.5 138.67C373.38 138.67 367.177 138.667 356.667 138.667H339.333L340.133 86.6668H356V78.5335L314 79.3335L313.6 83.0668L313.2 86.6668H330.667V138.667H305.333V78.6668H293.733L287.2 92.8002L280.8 106.933L274 93.0668L267.2 79.3335L256 78.5335V138.667H208V60.0002H228V28.0002H208V0.000167847L464 0ZM10.4 3.86683C8 2.5 8 2.5 5.33333 0.666835C5.30356 0.643014 4.5 0 4.5 0L58.6667 0.000167847V138.667H30.8L30.4 82.9335C30 32.8002 29.7333 26.8002 27.6 22.0002C24.6667 15.3335 12.8 5.23367 10.4 3.86683ZM87.6 24.2668C84.2667 15.4668 80.4 10.8002 71.6 5.20017L63.6 0.000167847H117.333V138.667H90.9333L90.4 84.4002C89.8667 37.7335 89.4667 29.2002 87.6 24.2668ZM145.733 21.3335C142.533 14.2668 136.4 8.26683 128 3.46683L122 0.000167847H177.333V54.9335C177.467 96.2668 177.867 111.2 179.2 114.8C181.867 122.267 187.867 129.2 195.6 133.6C199.467 135.734 202.667 137.867 202.667 138.133C202.667 138.183 203 138.5 203 138.67C203 138.67 187.984 138.667 176.133 138.667H149.467L149.067 82.9335C148.667 29.6002 148.533 27.0668 145.733 21.3335ZM394.164 98.3107C394.599 96.8675 395.046 95.3874 395.467 94.0002C396.667 89.6002 398 86.6668 398.133 87.3335C398.4 88.1335 400 93.6002 401.733 99.6002L404.5 110.133L397.733 110.667C393.867 110.667 390.667 110.4 390.667 110.133C390.667 110 391.2 108 391.867 105.867C392.323 104.406 393.217 101.445 394.164 98.3107ZM296 138.667H264.667L265.467 95.4668L270.4 105.333C275.067 114.8 279.733 115.686 280.267 115.733C280.8 115.781 281.168 115.769 281.5 115.733C281.832 115.698 285.5 115.733 290.533 105.733L295.867 95.3335L296 116.933V138.667ZM382.933 138.667L385.733 129.333L388.4 120H397.467C402.4 120 406.6 119.7 407 120.5C407.667 121.7 412 136.667 412 138C412 138.065 412 138.5 412 138.67C412 138.67 404.161 138.667 397.467 138.667H382.933Z" fill="currentColor" />
  </g>
  <defs>
    <clipPath id="c">
      <rect width="464" height="138.667" fill="currentColor" />
    </clipPath>
  </defs>
</svg>
  