<?xml version="1.0" encoding="UTF-8"?>
<svg id="Ebene_2" data-name="Ebene 2" xmlns="http://www.w3.org/2000/svg" viewBox="0 0 735.1561 210.8917">
  <defs>
    <style>
      .cls-1 {
        fill: #fff;
        fill-rule: evenodd;
      }

      .cls-1, .cls-2 {
        stroke-width: 0px;
      }

      .cls-2 {
        fill: #fff;
      }
    </style>
  </defs>
  <g id="logos">
    <g>
      <g>
        <path class="cls-2" d="M0,0v192.6714h40.7708V51.9159C40.7708,23.0908,19.433,7.4414,0,0Z"/>
        <path class="cls-2" d="M80.8666,0v192.6714h40.7709V51.9159c0-28.8251-21.338-44.4745-40.7709-51.9159Z"/>
        <path class="cls-2" d="M161.7314,0v192.6714h40.7702V51.9159c0-28.8251-21.3372-44.4745-40.7702-51.9159Z"/>
        <path class="cls-2" d="M310.8437,41.2181h-27.476V0h-40.7714v140.7565c0,28.8247,21.3372,44.4742,40.7714,51.9149v-109.9538h27.476v-41.4995Z"/>
      </g>
      <path class="cls-1" d="M400.3959,80.7421V0h30.4886c8.3854,0,14.2975,1.9804,17.7382,5.9413,3.4388,3.9609,5.1572,10.1723,5.1572,18.6351,0,4.5979-.5312,8.5204-1.5936,11.767-1.0624,3.2466-2.5982,5.8741-4.6074,7.8831-2.0092,2.0092-4.5012,3.4783-7.4777,4.4052-2.9747.9269-6.3948,1.3908-10.2586,1.3908h-21.1564v30.7205l-8.2903-.0009ZM408.6862,42.2551h24.9232c3.3232,0,6.0388-.9854,8.1431-2.9559,2.1043-1.9706,3.1592-4.4635,3.1592-7.4777v-14.0847c0-3.0142-.9953-5.4388-2.9858-7.2748-1.9906-1.836-4.7621-2.753-8.3183-2.753h-24.9214v34.546ZM459.597,64.1071c0-4.7433,1.245-8.6657,3.737-11.7709,2.492-3.1052,6.3855-4.9075,11.6862-5.41l22.9476-2.1785v-5.5643c0-2.7046-.3578-4.9265-1.0717-6.6655-.7101-1.7391-1.6756-3.1201-2.889-4.1439-1.2171-1.024-2.71-1.749-4.4825-2.1734-1.7781-.4253-3.7426-.638-5.9028-.638-4.2794,0-7.7144.9852-10.2977,2.9559-2.5833,1.9704-3.8749,5.0232-3.8749,9.1582h-7.4759c0-2.8599.5256-5.4387,1.5749-7.7377,1.0512-2.2989,2.5497-4.2794,4.4956-5.9414,1.9477-1.6618,4.2757-2.9469,6.9894-3.854,2.71-.9081,5.6511-1.3621,8.8197-1.3621,3.2282,0,6.1786.4154,8.8681,1.2463,2.6858.8311,4.9708,2.0774,6.8496,3.7383,1.8843,1.662,3.3325,3.7968,4.3483,6.4053,1.0195,2.6086,1.5265,5.6901,1.5265,9.2454v34.5461h8.9259v6.7812h-15.4326l-.2758-11.767h-.3523c-1.6569,4.2893-4.1433,7.5636-7.4628,9.825-3.3139,2.2605-7.2056,3.3911-11.6788,3.3911-3.0306,0-5.8357-.4639-8.4208-1.3908-2.5833-.9269-4.6708-2.2605-6.2587-3.9994-1.5936-1.5848-2.807-3.4969-3.642-5.7386-.8368-2.2416-1.2506-4.5614-1.2506-6.9573ZM467.8855,66.1747c0,3.115,1.1257,5.4338,3.3866,6.9553,2.2552,1.5215,5.312,2.2802,9.1682,2.2802,2.6988,0,5.1293-.5165,7.2876-1.5502,2.1602-1.0288,4.0147-2.4731,5.5542-4.323,1.5414-1.8499,2.71-4.0915,3.4985-6.7238.7921-2.6275,1.1873-5.5021,1.1873-8.6221v-2.9807l-25.2326,2.2802c-1.7688.1543-3.0157.7291-3.7482,1.7242-.7343.9903-1.1015,2.4058-1.1015,4.2359v6.7238ZM529.0734,20.2288v60.5132h7.4777V26.9526h19.2442v-6.7238h-26.7219ZM565.0585,26.9526v-6.7238h10.3182V0h7.4777v20.2288h14.7224v6.7238h-14.7224v47.0082h14.7224v6.7812h-22.1983V26.9526h-10.32ZM643.7778,37.7629c-1.0233,3.8827-1.5265,8.1247-1.5265,12.7226s.5032,8.8288,1.5265,12.6939c1.0232,3.8648,2.6075,7.2065,4.7528,10.0278,2.1453,2.8213,4.8497,5.0243,8.1152,6.6081,3.2654,1.5837,7.1291,2.3762,11.5725,2.3762s8.3071-.7914,11.5931-2.3762,5.9904-3.7868,8.1338-6.6081c2.1453-2.8213,3.7296-6.1639,4.7546-10.0278,1.0233-3.8639,1.5451-8.096,1.5451-12.6939s-.5219-8.8389-1.5451-12.7226c-1.0251-3.8837-2.6094-7.2263-4.7546-10.0278-2.1434-2.8015-4.8479-4.9945-8.1338-6.5784-3.2859-1.5837-7.1497-2.376-11.5931-2.376-4.4042,0-8.2493.7923-11.5334,2.376-3.2859,1.5839-6.009,3.7769-8.1543,6.5784-2.1453,2.8015-3.7296,6.1451-4.7528,10.0278ZM651.8929,66.0481c-.9095-1.9509-1.3531-4.1055-1.3531-6.4627v-18.2584c0-2.3574.4436-4.5109,1.3531-6.4627.9077-1.9516,2.1621-3.6324,3.7482-5.043,1.5843-1.4107,3.4388-2.492,5.5635-3.2457,2.1267-.7539,4.4639-1.1308,7.0136-1.1308s4.8889.378,7.0323,1.1308c2.1453.7528,3.9998,1.835,5.5654,3.2457,1.5638,1.4106,2.82,3.0923,3.7482,5.043.9263,1.9509,1.3904,4.1053,1.3904,6.4627v18.2584c0,2.3948-.4641,4.5593-1.3904,6.4912-.9282,1.9321-2.1844,3.6127-3.7482,5.0432-1.5656,1.4305-3.4201,2.5216-5.5654,3.2753-2.1434.7537-4.4825,1.1308-7.0323,1.1308-2.5106,0-4.8497-.3771-6.9931-1.1308-2.1453-.7537-4.0017-1.8459-5.5841-3.2753-1.5843-1.4294-2.8405-3.121-3.7482-5.0717ZM702.6396,26.9526v-6.7238h10.3164V0h22.2001v6.7812h-14.7224v13.4476h13.5035v6.7238h-13.5035v53.7894h-7.4777V26.9526h-10.3164ZM398.6998,109.9799v80.7413h15.4195v-34.5453h32.1699v34.5453h15.4176v-80.7413h-15.4176v33.1551h-32.1699v-33.1551h-15.4195ZM472.97,130.2087h15.9395l13.1568,43.1818h.4641l13.5632-43.1818h15.7084l-29.2716,80.6829h-25.8514v-11.4756h15.1866l2.956-8.6948-21.8516-60.5125ZM542.0029,160.8183c-3.3997,3.5504-5.0994,7.7813-5.0994,12.689,0,2.7816.4734,5.2942,1.4202,7.5359.9468,2.2413,2.2907,4.1927,4.0296,5.8552,1.739,1.6607,3.7575,2.956,6.0556,3.8824,2.3.9282,4.8404,1.3904,7.6231,1.3904,4.6745,0,8.4525-.9748,11.3321-2.9262,2.8778-1.9514,5.187-4.5888,6.926-7.912h.5219l.1156,9.39h23.3576v-11.5345h-10.2008v-29.677c0-6.801-2.1061-11.9599-6.3184-15.4766-4.2104-3.5167-9.9491-5.2747-17.2144-5.2747-3.6326,0-6.9931.4343-10.0852,1.3039-3.0902.8695-5.7574,2.1346-7.9977,3.7966-2.2422,1.6618-4.0389,3.7392-5.3921,6.2312-1.3513,2.4918-2.067,5.4001-2.1434,8.7229h14.838c0-2.7816.9468-4.8976,2.8405-6.3469,1.8937-1.4491,4.3465-2.1732,7.3603-2.1732,2.9374,0,5.256.7062,6.9558,2.1158,1.6999,1.4098,2.5498,3.6999,2.5498,6.8682v3.9413l-16.7522,1.3956c-6.4134.5798-11.321,2.6472-14.7224,6.2025ZM554.813,179.2795c-1.6607-.9081-2.4919-2.2653-2.4919-4.0816l.0018-5.2063c.0391-2.387,1.1593-3.7008,3.3624-3.9321l17.7941-1.5502v2.3712c0,3.8164-1.0922,7.0621-3.2766,9.738-2.1826,2.6798-5.1684,4.0182-8.9558,4.0182-2.6261,0-4.7714-.454-6.434-1.3573ZM610.2641,190.7212v-60.5127h14.838v8.7528c1.8173-3.2457,4.1843-5.7572,7.1012-7.5349,2.9169-1.7777,6.5216-2.666,10.8103-2.666,6.8011,0,11.8055,1.9805,15.0132,5.9414,3.2058,3.9608,4.8106,9.4185,4.8106,16.3748v39.6466h-14.838v-38.6029c0-3.5555-.7549-6.3182-2.2609-8.2889-1.5078-1.9706-4.0389-2.9559-7.5932-2.9559-4.0967,0-7.2932,1.3623-9.5932,4.0866-2.2981,2.7242-3.4481,6.3082-3.4481,10.7519v35.009l-14.8399-.0019ZM677.5207,148.09c-.9654,3.8837-1.4482,8.0087-1.4482,12.3753,0,4.405.5013,8.5282,1.506,12.3733,1.0046,3.8451,2.5032,7.1976,4.5124,10.0563,2.0092,2.8591,4.5105,5.12,7.5243,6.7806,3.0064,1.6625,6.5216,2.4938,10.5307,2.4938,4.0688,0,7.5262-.8499,10.3667-2.5497,2.8498-1.6998,5.2262-4.0576,7.1199-7.0714v8.1729h14.838v-80.7424h-14.838v28.4019c-1.8937-3.0133-4.3185-5.3707-7.2653-7.071-2.9356-1.7006-6.4246-2.5503-10.4524-2.5503-4.0091,0-7.5262.8309-10.5307,2.4929-3.0138,1.662-5.4965,3.9124-7.4684,6.7525-1.97,2.8401-3.4276,6.2016-4.3949,10.0852ZM694.8618,177.3623c-2.2515-2.1833-3.3717-4.9748-3.3717-8.3759v-17.0989c0-3.4009,1.1108-6.1827,3.3419-8.347,2.2217-2.1636,5.2746-3.2457,9.1496-3.2457,4.7621,0,8.2307,1.4204,10.3946,4.2605,2.1732,2.8401,3.2561,6.6368,3.2561,11.3901v9.0426c0,4.7136-1.0829,8.5004-3.2561,11.3603-2.1639,2.8599-5.6325,4.2893-10.3946,4.2893-3.8358,0-6.8794-1.092-9.1198-3.2753Z"/>
    </g>
  </g>
</svg>